<?xml version="1.0" standalone="no"?>
<!DOCTYPE svg PUBLIC "-//W3C//DTD SVG 1.1//EN" "http://www.w3.org/Graphics/SVG/1.1/DTD/svg11.dtd" >
<!--
Created with mf2outline.
-->
<svg xmlns="http://www.w3.org/2000/svg" xmlns:xlink="http://www.w3.org/1999/xlink" version="1.1">
<metadata>
Created by FontForge 20201107 at Sun Oct  8 01:24:47 2023
 By 
Copyright (c) 2023, Metaflop (http://www.metaflop.com), Simon Egli, Marco Mueller, Alexis Reigel, with Reserved Font Name Bespoke. Dual licensed under the GPL v3 (http://www.gnu.org/copyleft/gpl.html) and the OFL v1.1 (http://scripts.sil.org/OFL_web).
</metadata>
<defs>
<font id="Bespoke-nm_v-Wdzy1" horiz-adv-x="651" >
  <font-face 
    font-family="Bespoke"
    font-weight="500"
    font-stretch="normal"
    units-per-em="1000"
    panose-1="2 0 5 3 0 0 0 0 0 0"
    ascent="800"
    descent="-200"
    x-height="738"
    cap-height="900"
    bbox="-142 -376 1267 1225"
    underline-thickness="50"
    underline-position="-100"
    unicode-range="U+0020-FB04"
  />
    <missing-glyph />
    <glyph glyph-name="fi" unicode="fi" horiz-adv-x="644" 
d="M45 653v85h96v117c0 40 28 72 62 94c43 28 93 41 144 41h8c85 0 188 -43 205 -118l-105 -17c0 16 -15 27 -30 35c-21 11 -46 15 -70 15h-8c-24 0 -48 -4 -69 -15c-15 -8 -30 -19 -30 -35v-117h314v-738h-107v653h-207v-653h-107v653h-96z" />
    <glyph glyph-name="guillemotright" unicode="&#x3e;&#x3e;" horiz-adv-x="644" 
d="M322 369l-147 -369h-113l146 369l-146 369h113zM582 369l-146 -369h-114l147 369l-147 369h114z" />
    <glyph glyph-name="guillemotleft" unicode="&#x3c;&#x3c;" horiz-adv-x="644" 
d="M175 369l147 -369h-114l-146 369l146 369h114zM436 369l146 -369h-113l-147 369l147 369h113z" />
    <glyph glyph-name="quotedblright" unicode="&#x2019;&#x2019;" horiz-adv-x="630" 
d="M99 608l99 292h111l-127 -292h-83zM434 900h111l-127 -292h-82z" />
    <glyph glyph-name="exclamdown" unicode="&#x21;&#x2018;" horiz-adv-x="408" 
d="M151 -350v857h107v-857h-107zM135 711c0 37 32 69 69 69s70 -32 70 -69s-33 -69 -70 -69s-69 32 -69 69z" />
    <glyph glyph-name="fl" unicode="fl" horiz-adv-x="678" 
d="M296 905c-17 0 -48 -7 -48 -25v-142h104v-85h-104v-653h-107v653h-96v85h96v142c0 69 87 110 155 110h4c49 0 101 -20 130 -52l-82 -58c0 18 -31 25 -48 25h-4zM489 0v980h107v-980h-107z" />
    <glyph glyph-name="questiondown" unicode="&#x3f;&#x2018;" horiz-adv-x="589" 
d="M89 14c0 106 98 186 193 204v289h107v-369h-59c-68 0 -134 -55 -134 -124v-165c0 -69 66 -124 134 -124h11c52 0 100 33 121 73l80 -62c-43 -56 -121 -96 -201 -96h-11c-118 0 -241 90 -241 209v165zM266 711c0 37 33 69 70 69s69 -32 69 -69s-32 -69 -69 -69
s-70 32 -70 69z" />
    <glyph glyph-name="endash" unicode="&#x2d;&#x2d;" horiz-adv-x="644" 
d="M41 326v86h562v-86h-562z" />
    <glyph glyph-name="emdash" unicode="&#x2013;&#x2d;" horiz-adv-x="1123" 
d="M41 326v86h1041v-86h-1041z" />
    <glyph glyph-name="quotedblleft" unicode="&#x2018;&#x2018;" horiz-adv-x="630" 
d="M85 608l127 292h83l-99 -292h-111zM449 900h82l-99 -292h-111z" />
    <glyph glyph-name="ring" unicode="&#x2da;" horiz-adv-x="288" 
d="M201 835c0 24 -32 37 -55 37h-4c-23 0 -55 -13 -55 -37v-50c0 -24 32 -37 55 -37h4c23 0 55 13 55 37v50zM16 835c0 58 69 93 126 93h4c57 0 126 -35 126 -93v-50c0 -58 -69 -93 -126 -93h-4c-57 0 -126 35 -126 93v50z" />
    <glyph glyph-name="rcaron" unicode="&#x159;" horiz-adv-x="404" 
d="M313 663c-75 0 -124 -88 -124 -162v-501h-107v738h107v-64c30 41 73 74 124 74h11c34 0 67 -9 97 -25l-41 -79c-17 12 -36 19 -56 19h-11zM342 1125h97l-108 -180h-130l-108 180h96l77 -97z" />
    <glyph glyph-name="Eng" unicode="&#x14a;" horiz-adv-x="856" 
d="M554 -275c48 0 99 35 99 83v203l-450 708v-719h-107v900h100l457 -719v719h107v-1092c0 -99 -108 -168 -206 -168h-9c-85 0 -167 49 -196 116l97 42c7 -42 53 -73 99 -73h9z" />
    <glyph glyph-name="Q" unicode="Q" horiz-adv-x="959" 
d="M492 825h-25c-75 0 -149 -23 -209 -68c-51 -39 -89 -93 -89 -157v-300c0 -64 38 -119 89 -158c60 -45 134 -67 209 -67h25c60 0 120 14 172 43l-152 161h137l93 -99c29 34 48 75 48 120v300c0 64 -38 118 -89 157c-60 45 -134 68 -209 68zM492 910c102 0 203 -31 284 -93
c70 -53 121 -130 121 -217v-300c0 -73 -36 -139 -89 -190l104 -110h-136l-49 51c-71 -41 -152 -61 -235 -61h-25c-102 0 -203 31 -284 93c-70 53 -121 130 -121 217v300c0 87 51 164 121 217c81 62 182 93 284 93h25z" />
    <glyph glyph-name="Abreve" unicode="&#x102;" horiz-adv-x="760" 
d="M14 0l316 900h100l317 -900h-114l-131 374h-265l-132 -374h-91zM575 1158v-62c0 -36 -26 -65 -57 -85c-40 -25 -86 -36 -133 -36h-9c-47 0 -93 11 -133 36c-31 20 -57 49 -57 85v62h85v-62c0 -16 17 -25 32 -32c23 -10 48 -14 73 -14h9c25 0 50 4 73 14c15 7 31 16 31 32
v62h86zM472 459l-103 292l-103 -292h206z" />
    <glyph glyph-name="i" unicode="i" horiz-adv-x="260" 
d="M77 0v738h107v-738h-107zM58 1009c0 38 34 71 72 71s72 -33 72 -71s-34 -72 -72 -72s-72 34 -72 72z" />
    <glyph glyph-name="quoteright" unicode="&#x2019;" horiz-adv-x="349" 
d="M173 900h111l-128 -292h-82z" />
    <glyph glyph-name="Gbreve" unicode="&#x11e;" horiz-adv-x="980" 
d="M790 119c-64 -77 -183 -129 -298 -129h-25c-102 0 -203 31 -284 93c-70 53 -121 130 -121 217v300c0 87 51 164 121 217c81 62 182 93 284 93h25c102 0 203 -31 284 -93c39 -30 72 -67 94 -109h27v-708h-107v119zM674 1158v-62c0 -36 -26 -65 -57 -85
c-40 -25 -86 -36 -133 -36h-9c-47 0 -93 11 -133 36c-31 20 -57 49 -57 85v62h86v-62c0 -16 16 -25 31 -32c23 -10 48 -14 73 -14h9c25 0 50 4 73 14c15 7 31 16 31 32v62h86zM751 708c-54 70 -157 117 -259 117h-25c-75 0 -149 -23 -209 -68c-51 -39 -89 -93 -89 -157v-300
c0 -64 38 -119 89 -158c60 -45 134 -67 209 -67h25c73 0 146 16 209 54c48 29 89 71 89 126v369h-310v84h271z" />
    <glyph glyph-name="Ohungarumlaut" unicode="&#x150;" horiz-adv-x="959" 
d="M308 967l107 180h129l-140 -180h-96zM620 1147h130l-140 -180h-96zM492 825h-25c-75 0 -149 -23 -209 -68c-51 -39 -89 -93 -89 -157v-300c0 -64 38 -119 89 -158c60 -45 134 -67 209 -67h25c75 0 149 22 209 67c51 39 89 94 89 158v300c0 64 -38 118 -89 157
c-60 45 -134 68 -209 68zM492 910c102 0 203 -31 284 -93c70 -53 121 -130 121 -217v-300c0 -87 -51 -164 -121 -217c-81 -62 -182 -93 -284 -93h-25c-102 0 -203 31 -284 93c-70 53 -121 130 -121 217v300c0 87 51 164 121 217c81 62 182 93 284 93h25z" />
    <glyph glyph-name="racute" unicode="&#x155;" horiz-adv-x="404" 
d="M313 663c-75 0 -124 -88 -124 -162v-501h-107v738h107v-64c30 41 73 74 124 74h11c34 0 67 -9 97 -25l-41 -79c-17 12 -36 19 -56 19h-11zM312 1125h133l-150 -180h-99z" />
    <glyph glyph-name="udieresis" unicode="&#xfc;" 
d="M328 75c67 0 133 52 133 119v544h108v-738h-108v54c-34 -38 -81 -64 -133 -64h-12c-117 0 -241 86 -241 204v544h107v-544c0 -67 67 -119 134 -119h12zM127 1009c0 38 34 71 72 71s72 -33 72 -71s-34 -72 -72 -72s-72 34 -72 72zM373 1009c0 38 34 71 72 71
s72 -33 72 -71s-34 -72 -72 -72s-72 34 -72 72z" />
    <glyph glyph-name="slash" unicode="/" horiz-adv-x="514" 
d="M27 -45l346 990h113l-345 -990h-114z" />
    <glyph glyph-name="asciitilde" unicode="~" horiz-adv-x="671" 
d="M616 480c0 -93 -62 -203 -157 -203c-92 0 -155 99 -247 99c-18 0 -28 -18 -35 -35c-11 -26 -15 -55 -15 -83h-107c0 93 62 203 157 203c92 0 155 -99 247 -99c18 0 28 18 35 35c11 26 15 55 15 83h107z" />
    <glyph glyph-name="section" unicode="&#xa7;" 
d="M457 74c51 -22 112 -65 112 -125v-128c0 -51 -32 -96 -73 -127c-48 -36 -107 -54 -168 -54h-12c-91 0 -182 45 -221 112l90 52c13 -49 75 -79 131 -79h12c59 0 133 36 133 96v128c0 60 -74 96 -133 96h-12c-60 0 -119 17 -168 52c-41 29 -73 71 -73 120v116
c0 66 57 117 111 143c-51 22 -111 65 -111 125v128c0 51 32 96 73 127c48 36 107 54 168 54h12c88 0 178 -43 218 -107l-87 -55c-14 47 -75 77 -131 77h-12c-59 0 -134 -36 -134 -96v-128c0 -60 75 -96 134 -96h12c60 0 119 -17 168 -52c41 -29 73 -71 73 -120v-116
c0 -66 -58 -117 -112 -143zM461 333c0 57 -78 87 -133 87h-12c-33 0 -65 -8 -93 -26c-22 -14 -41 -35 -41 -61v-116c0 -26 19 -47 41 -61c28 -18 60 -26 93 -26h12c55 0 133 30 133 87v116z" />
    <glyph glyph-name="guilsinglright" unicode="&#x203a;" horiz-adv-x="377" 
d="M315 369l-140 -369h-113l140 369l-140 369h113z" />
    <glyph glyph-name="Edieresis" unicode="&#xcb;" horiz-adv-x="637" 
d="M96 0v900h493v-85h-386v-107h333v-84h-333v-539h386v-85h-493zM147 1031c0 38 34 71 72 71s72 -33 72 -71s-34 -72 -72 -72s-72 34 -72 72zM394 1031c0 38 34 71 72 71s72 -33 72 -71s-34 -72 -72 -72s-72 34 -72 72z" />
    <glyph glyph-name="eng" unicode="&#x14b;" 
d="M351 663c-72 0 -162 -45 -162 -119v-544h-107v738h107v-63c40 43 100 73 162 73h11c111 0 213 -93 213 -204v-736c0 -91 -83 -168 -174 -168h-6c-76 0 -142 53 -165 116l99 36c5 -32 31 -67 66 -67h6c40 0 67 44 67 83v736c0 59 -46 119 -106 119h-11z" />
    <glyph glyph-name="r" unicode="r" horiz-adv-x="404" 
d="M313 663c-75 0 -124 -88 -124 -162v-501h-107v738h107v-64c30 41 73 74 124 74h11c34 0 67 -9 97 -25l-41 -79c-17 12 -36 19 -56 19h-11z" />
    <glyph glyph-name="u" unicode="u" 
d="M328 75c67 0 133 52 133 119v544h108v-738h-108v54c-34 -38 -81 -64 -133 -64h-12c-117 0 -241 86 -241 204v544h107v-544c0 -67 67 -119 134 -119h12z" />
    <glyph glyph-name="Odieresis" unicode="&#xd6;" horiz-adv-x="959" 
d="M284 1031c0 38 34 71 72 71s72 -33 72 -71s-34 -72 -72 -72s-72 34 -72 72zM531 1031c0 38 34 71 72 71s72 -33 72 -71s-34 -72 -72 -72s-72 34 -72 72zM492 825h-25c-75 0 -149 -23 -209 -68c-51 -39 -89 -93 -89 -157v-300c0 -64 38 -119 89 -158
c60 -45 134 -67 209 -67h25c75 0 149 22 209 67c51 39 89 94 89 158v300c0 64 -38 118 -89 157c-60 45 -134 68 -209 68zM492 910c102 0 203 -31 284 -93c70 -53 121 -130 121 -217v-300c0 -87 -51 -164 -121 -217c-81 -62 -182 -93 -284 -93h-25c-102 0 -203 31 -284 93
c-70 53 -121 130 -121 217v300c0 87 51 164 121 217c81 62 182 93 284 93h25z" />
    <glyph glyph-name="Zdotaccent" unicode="&#x17b;" horiz-adv-x="699" 
d="M34 815v85h630v-100l-515 -715h515v-85h-630v100l516 715h-516zM277 1031c0 38 34 71 72 71s72 -33 72 -71s-34 -72 -72 -72s-72 34 -72 72z" />
    <glyph glyph-name="Igrave" unicode="&#xcc;" horiz-adv-x="326" 
d="M110 0v900h107v-900h-107zM-17 1147h134l116 -180h-99z" />
    <glyph glyph-name="P" unicode="P" horiz-adv-x="699" 
d="M96 0v900h270c71 0 141 -13 204 -46c45 -23 88 -57 88 -106v-89c0 -49 -43 -83 -88 -106c-63 -33 -133 -46 -204 -46h-163v-507h-107zM203 815v-223h163c44 0 88 5 129 20c26 9 55 21 55 47v89c0 26 -29 38 -55 47c-41 15 -85 20 -129 20h-163z" />
    <glyph glyph-name="tcaron" unicode="&#x165;" horiz-adv-x="370" 
d="M18 653v85h113v242h107v-242h114v-85h-114v-653h-107v653h-113zM468 980h111l-129 -292h-82z" />
    <glyph glyph-name="Scedilla" unicode="&#x15e;" horiz-adv-x="712" 
d="M524 -257c0 -75 -95 -119 -168 -119h-7c-70 0 -149 39 -165 100l83 19c0 -34 49 -51 82 -51h7c33 0 83 17 83 51v67c0 34 -50 51 -83 51h-86l33 131c-88 9 -182 50 -225 113l85 58c5 -26 29 -44 54 -58c39 -21 83 -30 128 -30h15c45 0 90 9 129 30c28 15 55 38 55 70v133
c0 32 -27 55 -55 70c-39 21 -84 30 -129 30h-15c-72 0 -143 17 -203 55c-47 30 -87 74 -87 129v133c0 55 40 100 87 130c60 38 131 55 203 55h15c104 0 219 -43 268 -116l-85 -58c-5 26 -29 45 -54 59c-39 21 -84 30 -129 30h-15c-45 0 -89 -9 -128 -30
c-28 -15 -55 -38 -55 -70v-133c0 -32 27 -55 55 -70c39 -21 83 -30 128 -30h15c72 0 144 -17 204 -55c47 -30 87 -74 87 -129v-133c0 -55 -40 -100 -87 -130c-54 -35 -118 -52 -182 -55l-16 -61c69 -3 158 -47 158 -119v-67z" />
    <glyph glyph-name="b" unicode="b" horiz-adv-x="706" 
d="M363 -10c-68 0 -129 42 -167 94v-84h-107v980h107v-326c38 52 99 94 167 94h14c142 0 274 -119 274 -261v-236c0 -142 -132 -261 -274 -261h-14zM544 487c0 91 -76 176 -167 176h-14c-91 0 -167 -85 -167 -176v-236c0 -91 76 -176 167 -176h14c91 0 167 85 167 176v236z
" />
    <glyph glyph-name="Yacute" unicode="&#xdd;" horiz-adv-x="712" 
d="M7 900h133l224 -293l224 293h118l-296 -387v-513h-107v513zM403 1147h133l-151 -180h-99z" />
    <glyph glyph-name="ecircumflex" unicode="&#xea;" horiz-adv-x="678" 
d="M162 251c0 -93 80 -176 173 -176h15c42 0 84 8 121 28c27 14 52 35 52 65l105 -20c-9 -43 -43 -79 -82 -104c-58 -37 -127 -54 -196 -54h-15c-143 0 -280 117 -280 261v236c0 144 137 261 280 261h15c143 0 280 -117 280 -261v-161h-468v-75zM335 663
c-93 0 -173 -83 -173 -176v-75h361v75c0 93 -80 176 -173 176h-15zM342 1043l-76 -98h-96l107 180h131l107 -180h-96z" />
    <glyph glyph-name="ocircumflex" unicode="&#xf4;" horiz-adv-x="685" 
d="M523 487c0 93 -80 176 -173 176h-15c-93 0 -173 -83 -173 -176v-236c0 -93 80 -176 173 -176h15c93 0 173 83 173 176v236zM55 487c0 144 137 261 280 261h15c143 0 280 -117 280 -261v-236c0 -144 -137 -261 -280 -261h-15c-143 0 -280 117 -280 261v236zM342 1043
l-76 -98h-96l107 180h131l107 -180h-96z" />
    <glyph glyph-name="eogonek" unicode="&#x119;" horiz-adv-x="678" 
d="M162 251c0 -93 80 -176 173 -176h15c42 0 84 8 121 28c27 14 52 35 52 65l105 -20c-9 -43 -43 -79 -82 -104c-55 -35 -118 -52 -183 -54l-86 -112c-18 -23 -52 -38 -52 -68v-67c0 -34 50 -51 83 -51h6c32 0 74 15 82 42l57 -56c-32 -33 -87 -54 -139 -54h-6
c-42 0 -84 12 -118 36c-28 20 -51 49 -51 83v67c0 65 78 88 116 136l37 47c-121 19 -237 125 -237 258v236c0 144 137 261 280 261h15c143 0 280 -117 280 -261v-161h-468v-75zM335 663c-93 0 -173 -83 -173 -176v-75h361v75c0 93 -80 176 -173 176h-15z" />
    <glyph glyph-name="ffi" unicode="&#xfb03;" horiz-adv-x="952" 
d="M299 905c-22 0 -52 -13 -52 -35v-132h214v117c0 40 27 72 60 94c41 28 91 41 141 41h7c83 0 184 -43 199 -118l-105 -17c0 16 -14 27 -28 35c-20 11 -43 15 -66 15h-7c-23 0 -46 -4 -66 -15c-14 -8 -28 -19 -28 -35v-117h302v-738h-107v653h-195v-653h-107v653h-214v-653
h-107v653h-95v85h95v132c0 73 87 120 159 120h4c61 0 123 -31 147 -78l-96 -42c0 22 -29 35 -51 35h-4z" />
    <glyph glyph-name="plus" unicode="+" horiz-adv-x="671" 
d="M282 738h107v-326h227v-86h-227v-326h-107v326h-227v86h227v326z" />
    <glyph glyph-name="Eogonek" unicode="&#x118;" horiz-adv-x="637" 
d="M668 -322c-32 -33 -86 -54 -138 -54h-7c-42 0 -84 12 -118 36c-28 20 -51 49 -51 83v67c0 65 78 88 116 136l42 54h-416v900h493v-85h-386v-107h333v-84h-333v-539h386v-85h-3l-94 -122c-18 -23 -52 -38 -52 -68v-67c0 -34 50 -51 83 -51h7c32 0 73 15 81 42z" />
    <glyph glyph-name="R" unicode="R" horiz-adv-x="692" 
d="M96 0v900h270c70 0 140 -11 204 -41c44 -20 88 -50 88 -96v-69c0 -46 -44 -76 -88 -96c-57 -27 -120 -39 -183 -41l298 -557h-125l-287 557h-70v-557h-107zM203 815v-173h163c44 0 87 3 129 15c25 7 55 16 55 37v69c0 21 -30 29 -55 36c-42 12 -85 16 -129 16h-163z" />
    <glyph glyph-name="ecaron" unicode="&#x11b;" horiz-adv-x="678" 
d="M162 251c0 -93 80 -176 173 -176h15c42 0 84 8 121 28c27 14 52 35 52 65l105 -20c-9 -43 -43 -79 -82 -104c-58 -37 -127 -54 -196 -54h-15c-143 0 -280 117 -280 261v236c0 144 137 261 280 261h15c143 0 280 -117 280 -261v-161h-468v-75zM419 1125h96l-107 -180h-131
l-107 180h96l76 -97zM335 663c-93 0 -173 -83 -173 -176v-75h361v75c0 93 -80 176 -173 176h-15z" />
    <glyph glyph-name="V" unicode="V" horiz-adv-x="721" 
d="M11 900h113l246 -741l247 741h93l-300 -900h-100z" />
    <glyph glyph-name="AE" unicode="&#xc6;" horiz-adv-x="1103" 
d="M14 0l468 900h573v-85h-412v-107h364v-84h-364v-539h412v-85h-519v457h-182v14l-244 -471h-96zM392 542h144v277z" />
    <glyph glyph-name="bracketright" unicode="]" horiz-adv-x="384" 
d="M41 945h219v-1295h-219v85h112v1125h-112v85z" />
    <glyph glyph-name="H" unicode="H" horiz-adv-x="822" 
d="M96 0v900h107v-192h416v192h107v-900h-107v624h-416v-624h-107z" />
    <glyph glyph-name="exclam" unicode="!" horiz-adv-x="408" 
d="M151 274v626h107v-626h-107zM135 69c0 37 32 70 69 70s70 -33 70 -70s-33 -69 -70 -69s-69 32 -69 69z" />
    <glyph glyph-name="Aogonek" unicode="&#x104;" horiz-adv-x="760" 
d="M676 -376c-73 0 -168 44 -168 119v67c0 65 78 88 116 136l41 54h-32l-131 374h-265l-132 -374h-91l316 900h100l317 -900h-8l-94 -122c-18 -23 -51 -38 -51 -68v-67c0 -34 49 -51 82 -51h7c32 0 73 15 81 42l58 -56c-32 -33 -87 -54 -139 -54h-7zM472 459l-103 292
l-103 -292h206z" />
    <glyph glyph-name="L" unicode="L" horiz-adv-x="630" 
d="M96 0v900h107v-815h386v-85h-493z" />
    <glyph glyph-name="comma" unicode="," horiz-adv-x="322" 
d="M116 148h113l-127 -369h-83z" />
    <glyph glyph-name="ydieresis" unicode="&#xff;" horiz-adv-x="575" 
d="M7 738h112l179 -552l178 552h93l-352 -1088h-92l116 362zM92 1009c0 38 34 71 72 71s72 -33 72 -71s-34 -72 -72 -72s-72 34 -72 72zM339 1009c0 38 34 71 72 71s72 -33 72 -71s-34 -72 -72 -72s-72 34 -72 72z" />
    <glyph glyph-name="O" unicode="O" horiz-adv-x="959" 
d="M492 825h-25c-75 0 -149 -23 -209 -68c-51 -39 -89 -93 -89 -157v-300c0 -64 38 -119 89 -158c60 -45 134 -67 209 -67h25c75 0 149 22 209 67c51 39 89 94 89 158v300c0 64 -38 118 -89 157c-60 45 -134 68 -209 68zM492 910c102 0 203 -31 284 -93
c70 -53 121 -130 121 -217v-300c0 -87 -51 -164 -121 -217c-81 -62 -182 -93 -284 -93h-25c-102 0 -203 31 -284 93c-70 53 -121 130 -121 217v300c0 87 51 164 121 217c81 62 182 93 284 93h25z" />
    <glyph glyph-name="bar" unicode="|" horiz-adv-x="274" 
d="M83 -45v990h108v-990h-108z" />
    <glyph glyph-name="underscore" unicode="_" horiz-adv-x="644" 
d="M41 -172v84h562v-84h-562z" />
    <glyph glyph-name="circumflex" unicode="&#x2c6;" horiz-adv-x="288" 
d="M144 817l-76 -97h-97l108 180h130l108 -180h-97z" />
    <glyph glyph-name="Ecircumflex" unicode="&#xca;" horiz-adv-x="637" 
d="M96 0v900h493v-85h-386v-107h333v-84h-333v-539h386v-85h-493zM342 1065l-76 -98h-96l107 180h131l107 -180h-96z" />
    <glyph glyph-name="asterisk" unicode="*" horiz-adv-x="637" 
d="M265 900h107v-168l142 56v-118l-115 -45l115 -175h-126l-69 106l-70 -106h-126l115 175l-115 45v118l142 -56v168z" />
    <glyph glyph-name="dcaron" unicode="&#x10f;" horiz-adv-x="706" 
d="M343 748c68 0 128 -42 166 -94v326h107v-980h-107v84c-38 -52 -98 -94 -166 -94h-14c-142 0 -274 119 -274 261v236c0 142 132 261 274 261h14zM762 980h111l-128 -292h-82zM509 487c0 91 -75 176 -166 176h-14c-91 0 -167 -85 -167 -176v-236c0 -91 76 -176 167 -176h14
c91 0 166 85 166 176v236z" />
    <glyph glyph-name="Ecaron" unicode="&#x11a;" horiz-adv-x="637" 
d="M96 0v900h493v-85h-386v-107h333v-84h-333v-539h386v-85h-493zM419 1147h96l-107 -180h-131l-107 180h96l76 -97z" />
    <glyph glyph-name="Udieresis" unicode="&#xdc;" horiz-adv-x="814" 
d="M722 900v-691c0 -63 -40 -116 -92 -153c-62 -44 -138 -66 -215 -66h-16c-77 0 -153 22 -215 66c-52 37 -92 90 -92 153v691h107v-691c0 -39 27 -72 60 -94c41 -28 90 -40 140 -40h16c50 0 99 12 140 40c33 22 60 55 60 94v691h107zM212 1031c0 38 34 71 72 71
s72 -33 72 -71s-34 -72 -72 -72s-72 34 -72 72zM458 1031c0 38 34 71 72 71s72 -33 72 -71s-34 -72 -72 -72s-72 34 -72 72z" />
    <glyph glyph-name="Zcaron" unicode="&#x17d;" horiz-adv-x="699" 
d="M34 815v85h630v-100l-515 -715h515v-85h-630v100l516 715h-516zM426 1147h96l-108 -180h-130l-107 180h96l76 -97z" />
    <glyph glyph-name="acute" unicode="&#xb4;" horiz-adv-x="274" 
d="M135 900h134l-151 -180h-99z" />
    <glyph glyph-name="uni1E9E" unicode="&#x1e9e;" horiz-adv-x="1329" 
d="M511 738c-15 58 -100 87 -167 87h-14c-41 0 -83 -9 -118 -30c-27 -16 -50 -39 -50 -70v-133c0 -31 23 -54 50 -70c35 -21 77 -30 118 -30h14c68 0 136 -17 193 -55c45 -30 83 -75 83 -129v-133c0 -54 -38 -100 -83 -130c-57 -38 -125 -55 -193 -55h-14
c-100 0 -207 44 -253 115l87 56c14 -58 100 -86 166 -86h14c41 0 83 9 118 30c27 16 50 39 50 70v133c0 31 -23 54 -50 70c-35 21 -77 30 -118 30h-14c-68 0 -136 17 -193 55c-45 30 -82 75 -82 129v133c0 54 37 100 82 130c57 38 125 55 193 55h14c101 0 208 -45 254 -116z
M1159 738c-15 58 -100 87 -167 87h-14c-41 0 -83 -9 -118 -30c-27 -16 -50 -39 -50 -70v-133c0 -31 23 -54 50 -70c35 -21 77 -30 118 -30h14c68 0 136 -17 193 -55c45 -30 82 -75 82 -129v-133c0 -54 -37 -100 -82 -130c-57 -38 -125 -55 -193 -55h-14
c-100 0 -208 44 -254 115l87 56c14 -58 101 -86 167 -86h14c41 0 83 9 118 30c27 16 50 39 50 70v133c0 31 -23 54 -50 70c-35 21 -77 30 -118 30h-14c-68 0 -136 17 -193 55c-45 30 -82 75 -82 129v133c0 54 37 100 82 130c57 38 125 55 193 55h14c101 0 208 -45 254 -116z
" />
    <glyph glyph-name="Uhungarumlaut" unicode="&#x170;" horiz-adv-x="814" 
d="M722 900v-691c0 -63 -40 -116 -92 -153c-62 -44 -138 -66 -215 -66h-16c-77 0 -153 22 -215 66c-52 37 -92 90 -92 153v691h107v-691c0 -39 27 -72 60 -94c41 -28 90 -40 140 -40h16c50 0 99 12 140 40c33 22 60 55 60 94v691h107zM236 967l106 180h130l-140 -180h-96z
M547 1147h130l-140 -180h-96z" />
    <glyph glyph-name="Atilde" unicode="&#xc3;" horiz-adv-x="760" 
d="M14 0l316 900h100l317 -900h-114l-131 374h-265l-132 -374h-91zM319 1022c-26 0 -48 -24 -48 -50h-85c0 69 64 126 133 126c44 0 79 -37 123 -37c26 0 47 24 47 50h86c0 -69 -65 -126 -133 -126c-44 0 -79 37 -123 37zM472 459l-103 292l-103 -292h206z" />
    <glyph glyph-name="Dcaron" unicode="&#x10e;" horiz-adv-x="863" 
d="M96 0v900h289c103 0 204 -30 287 -91c70 -52 123 -127 123 -213v-292c0 -86 -53 -161 -123 -213c-83 -61 -184 -91 -287 -91h-289zM446 1147h97l-108 -180h-130l-108 180h97l76 -97zM203 85h182c76 0 151 22 212 66c51 37 91 90 91 153v292c0 63 -40 116 -91 153
c-61 44 -136 66 -212 66h-182v-730z" />
    <glyph glyph-name="equal" unicode="=" horiz-adv-x="671" 
d="M55 474v85h561v-85h-561zM55 179v85h561v-85h-561z" />
    <glyph glyph-name="C" unicode="C" horiz-adv-x="925" 
d="M492 75c131 0 275 78 296 198l103 -25c-37 -154 -223 -258 -399 -258h-25c-102 0 -203 31 -284 93c-70 53 -121 130 -121 217v300c0 87 51 164 121 217c81 62 182 93 284 93h25c176 0 362 -104 399 -258l-103 -25c-21 120 -165 198 -296 198h-25c-75 0 -149 -23 -209 -68
c-51 -39 -89 -93 -89 -157v-300c0 -64 38 -119 89 -158c60 -45 134 -67 209 -67h25z" />
    <glyph glyph-name="Eth" unicode="&#xd0;" horiz-adv-x="918" 
d="M440 900c103 0 204 -30 287 -91c70 -52 122 -127 122 -213v-292c0 -86 -52 -161 -122 -213c-83 -61 -184 -91 -287 -91h-289v408h-103v84h103v408h289zM258 85h182c76 0 151 22 212 66c51 37 90 90 90 153v292c0 63 -39 116 -90 153c-61 44 -136 66 -212 66h-182v-323
h242v-84h-242v-323z" />
    <glyph glyph-name="edieresis" unicode="&#xeb;" horiz-adv-x="678" 
d="M162 251c0 -93 80 -176 173 -176h15c42 0 84 8 121 28c27 14 52 35 52 65l105 -20c-9 -43 -43 -79 -82 -104c-58 -37 -127 -54 -196 -54h-15c-143 0 -280 117 -280 261v236c0 144 137 261 280 261h15c143 0 280 -117 280 -261v-161h-468v-75zM147 1009c0 38 34 71 72 71
s72 -33 72 -71s-34 -72 -72 -72s-72 34 -72 72zM394 1009c0 38 34 71 72 71s72 -33 72 -71s-34 -72 -72 -72s-72 34 -72 72zM335 663c-93 0 -173 -83 -173 -176v-75h361v75c0 93 -80 176 -173 176h-15z" />
    <glyph glyph-name="ccaron" unicode="&#x10d;" horiz-adv-x="655" 
d="M350 75c87 0 161 74 172 155l104 -20c-22 -121 -142 -220 -276 -220h-15c-143 0 -280 117 -280 261v236c0 144 137 261 280 261h15c134 0 254 -99 276 -220l-104 -20c-11 81 -84 155 -172 155h-15c-93 0 -173 -83 -173 -176v-236c0 -93 80 -176 173 -176h15zM419 1125h96
l-107 -180h-131l-107 180h96l76 -97z" />
    <glyph glyph-name="cacute" unicode="&#x107;" horiz-adv-x="655" 
d="M350 75c87 0 161 74 172 155l104 -20c-22 -121 -142 -220 -276 -220h-15c-143 0 -280 117 -280 261v236c0 144 137 261 280 261h15c134 0 254 -99 276 -220l-104 -20c-11 81 -84 155 -172 155h-15c-93 0 -173 -83 -173 -176v-236c0 -93 80 -176 173 -176h15zM389 1125
h133l-151 -180h-98z" />
    <glyph glyph-name="odieresis" unicode="&#xf6;" horiz-adv-x="685" 
d="M147 1009c0 38 34 71 72 71s72 -33 72 -71s-34 -72 -72 -72s-72 34 -72 72zM394 1009c0 38 34 71 72 71s72 -33 72 -71s-34 -72 -72 -72s-72 34 -72 72zM523 487c0 93 -80 176 -173 176h-15c-93 0 -173 -83 -173 -176v-236c0 -93 80 -176 173 -176h15
c93 0 173 83 173 176v236zM55 487c0 144 137 261 280 261h15c143 0 280 -117 280 -261v-236c0 -144 -137 -261 -280 -261h-15c-143 0 -280 117 -280 261v236z" />
    <glyph glyph-name="four" unicode="4" horiz-adv-x="678" 
d="M523 228v-228h-107v228h-364v100l371 572h100v-588h103v-84h-103zM416 312v397l-257 -397h257z" />
    <glyph glyph-name="adieresis" unicode="&#xe4;" horiz-adv-x="644" 
d="M314 748c127 0 248 -106 248 -234v-514h-107v46c-37 -35 -89 -56 -141 -56h-12c-62 0 -122 17 -173 52c-41 29 -74 72 -74 122v118c0 50 33 92 74 121c51 35 111 53 173 53h12c52 0 104 -22 141 -57v115c0 77 -64 149 -141 149h-12c-63 0 -115 -50 -133 -103l-93 45
c37 78 126 143 226 143h12zM113 1009c0 38 34 71 72 71s72 -33 72 -71s-34 -72 -72 -72s-72 34 -72 72zM360 1009c0 38 34 71 72 71s71 -33 71 -71s-33 -72 -71 -72s-72 34 -72 72zM162 164c0 -59 83 -89 140 -89h12c35 0 69 9 98 27c23 14 43 35 43 62v118
c0 27 -20 48 -43 62c-29 18 -63 27 -98 27h-12c-57 0 -140 -30 -140 -89v-118z" />
    <glyph glyph-name="Ydieresis" unicode="&#x178;" horiz-adv-x="712" 
d="M7 900h133l224 -293l224 293h118l-296 -387v-513h-107v513zM161 1031c0 38 34 71 72 71s72 -33 72 -71s-34 -72 -72 -72s-72 34 -72 72zM408 1031c0 38 34 71 72 71s71 -33 71 -71s-33 -72 -71 -72s-72 34 -72 72z" />
    <glyph glyph-name="Thorn" unicode="&#xde;" horiz-adv-x="712" 
d="M96 0v900h107v-138h163c71 0 141 -13 204 -46c45 -24 88 -59 88 -109v-94c0 -50 -43 -85 -88 -109c-63 -33 -133 -47 -204 -47h-163v-357h-107zM203 678v-236h163c44 0 88 5 129 21c26 10 55 23 55 50v94c0 27 -29 39 -55 49c-41 16 -85 22 -129 22h-163z" />
    <glyph glyph-name="cedilla" unicode="&#xb8;" horiz-adv-x="274" 
d="M223 -190c0 34 -50 51 -83 51h-86l43 173h80l-27 -105c69 -3 159 -47 159 -119v-67c0 -34 -23 -63 -51 -83c-34 -24 -76 -36 -118 -36h-6c-70 0 -150 39 -166 100l83 19c0 -34 50 -51 83 -51h6c33 0 83 17 83 51v67z" />
    <glyph glyph-name="p" unicode="p" horiz-adv-x="699" 
d="M356 -10c-68 0 -129 42 -167 94v-434h-107v1088h107v-84c38 52 99 94 167 94h14c142 0 274 -119 274 -261v-236c0 -142 -132 -261 -274 -261h-14zM537 487c0 91 -76 176 -167 176h-14c-91 0 -167 -85 -167 -176v-236c0 -91 76 -176 167 -176h14c91 0 167 85 167 176v236z
" />
    <glyph glyph-name="semicolon" unicode=";" horiz-adv-x="329" 
d="M109 148h113l-127 -369h-83zM96 669c0 37 33 69 70 69s69 -32 69 -69s-32 -70 -69 -70s-70 33 -70 70z" />
    <glyph glyph-name="Idieresis" unicode="&#xcf;" horiz-adv-x="326" 
d="M110 0v900h107v-900h-107zM-32 1031c0 38 34 71 72 71s72 -33 72 -71s-34 -72 -72 -72s-72 34 -72 72zM215 1031c0 38 33 71 71 71s72 -33 72 -71s-34 -72 -72 -72s-71 34 -71 72z" />
    <glyph glyph-name="U" unicode="U" horiz-adv-x="814" 
d="M722 900v-691c0 -63 -40 -116 -92 -153c-62 -44 -138 -66 -215 -66h-16c-77 0 -153 22 -215 66c-52 37 -92 90 -92 153v691h107v-691c0 -39 27 -72 60 -94c41 -28 90 -40 140 -40h16c50 0 99 12 140 40c33 22 60 55 60 94v691h107z" />
    <glyph glyph-name="Agrave" unicode="&#xc0;" horiz-adv-x="760" 
d="M14 0l316 900h100l317 -900h-114l-131 374h-265l-132 -374h-91zM200 1147h134l116 -180h-99zM472 459l-103 292l-103 -292h206z" />
    <glyph glyph-name="dollar" unicode="$" horiz-adv-x="712" 
d="M78 105l85 58c5 -26 29 -44 54 -58c39 -21 83 -30 128 -30h15c45 0 90 9 129 30c28 15 55 38 55 70v133c0 32 -27 55 -55 70c-39 21 -84 30 -129 30h-15c-72 0 -143 17 -203 55c-47 30 -87 74 -87 129v133c0 55 40 100 87 130c48 30 101 47 157 53v172h107v-172
c87 -9 179 -51 222 -114l-85 -58c-5 26 -29 45 -54 59c-39 21 -84 30 -129 30h-15c-45 0 -89 -9 -128 -30c-28 -15 -55 -38 -55 -70v-133c0 -32 27 -55 55 -70c39 -21 83 -30 128 -30h15c72 0 144 -17 204 -55c47 -30 87 -74 87 -129v-133c0 -55 -40 -100 -87 -130
c-48 -30 -102 -47 -158 -53v-172h-107v172c-87 9 -178 50 -221 113z" />
    <glyph glyph-name="ncaron" unicode="&#x148;" 
d="M351 663c-72 0 -162 -45 -162 -119v-544h-107v738h107v-63c40 43 100 73 162 73h11c111 0 213 -93 213 -204v-544h-107v544c0 59 -46 119 -106 119h-11zM405 1125h97l-108 -180h-130l-108 180h96l77 -97z" />
    <glyph glyph-name="Ograve" unicode="&#xd2;" horiz-adv-x="959" 
d="M300 1147h133l116 -180h-98zM492 825h-25c-75 0 -149 -23 -209 -68c-51 -39 -89 -93 -89 -157v-300c0 -64 38 -119 89 -158c60 -45 134 -67 209 -67h25c75 0 149 22 209 67c51 39 89 94 89 158v300c0 64 -38 118 -89 157c-60 45 -134 68 -209 68zM492 910
c102 0 203 -31 284 -93c70 -53 121 -130 121 -217v-300c0 -87 -51 -164 -121 -217c-81 -62 -182 -93 -284 -93h-25c-102 0 -203 31 -284 93c-70 53 -121 130 -121 217v300c0 87 51 164 121 217c81 62 182 93 284 93h25z" />
    <glyph glyph-name="Icircumflex" unicode="&#xce;" horiz-adv-x="326" 
d="M110 0v900h107v-900h-107zM163 1065l-76 -98h-97l108 180h130l108 -180h-97z" />
    <glyph glyph-name="e" unicode="e" horiz-adv-x="678" 
d="M162 251c0 -93 80 -176 173 -176h15c42 0 84 8 121 28c27 14 52 35 52 65l105 -20c-9 -43 -43 -79 -82 -104c-58 -37 -127 -54 -196 -54h-15c-143 0 -280 117 -280 261v236c0 144 137 261 280 261h15c143 0 280 -117 280 -261v-161h-468v-75zM335 663
c-93 0 -173 -83 -173 -176v-75h361v75c0 93 -80 176 -173 176h-15z" />
    <glyph glyph-name="breve" unicode="&#x2d8;" horiz-adv-x="288" 
d="M338 910v-61c0 -36 -26 -65 -57 -85c-40 -25 -86 -37 -133 -37h-8c-47 0 -94 12 -134 37c-31 20 -57 49 -57 85v61h86v-61c0 -16 16 -25 31 -32c23 -10 49 -14 74 -14h8c25 0 50 4 73 14c15 7 32 16 32 32v61h85z" />
    <glyph glyph-name="ampersand" unicode="&#x26;" horiz-adv-x="849" 
d="M539 730c-5 63 -91 95 -155 95h-12c-38 0 -77 -9 -109 -30c-25 -16 -46 -40 -46 -70v-133c0 -31 23 -54 50 -70c35 -21 76 -30 117 -30h411v-84h-149v-408h-274c-65 0 -130 18 -184 55c-44 30 -78 74 -78 127v129c0 72 66 127 126 154c-56 21 -126 63 -126 127v133
c0 53 34 99 78 130c53 38 119 55 184 55h12c109 0 232 -58 258 -152zM539 408h-167c-38 0 -77 -10 -109 -30c-25 -16 -46 -38 -46 -67v-129c0 -29 21 -52 46 -68c32 -20 71 -29 109 -29h167v323z" />
    <glyph glyph-name="d" unicode="d" horiz-adv-x="706" 
d="M343 748c68 0 128 -42 166 -94v326h107v-980h-107v84c-38 -52 -98 -94 -166 -94h-14c-142 0 -274 119 -274 261v236c0 142 132 261 274 261h14zM509 487c0 91 -75 176 -166 176h-14c-91 0 -167 -85 -167 -176v-236c0 -91 76 -176 167 -176h14c91 0 166 85 166 176v236z
" />
    <glyph glyph-name="dotlessi" unicode="&#x131;" horiz-adv-x="260" 
d="M77 0v738h107v-738h-107z" />
    <glyph glyph-name="Oslash" unicode="&#xd8;" horiz-adv-x="959" 
d="M492 825h-25c-75 0 -149 -23 -209 -68c-51 -39 -89 -93 -89 -157v-300c0 -37 13 -72 34 -102l484 569c-57 39 -126 58 -195 58zM492 910c90 0 179 -24 255 -73l53 63h125l-105 -123c46 -49 77 -110 77 -177v-300c0 -87 -51 -164 -121 -217c-81 -62 -182 -93 -284 -93h-25
c-90 0 -179 24 -255 73l-53 -63h-125l105 123c-46 49 -77 110 -77 177v300c0 87 51 164 121 217c81 62 182 93 284 93h25zM272 133c57 -39 126 -58 195 -58h25c75 0 149 22 209 67c51 39 89 94 89 158v300c0 37 -13 72 -34 102z" />
    <glyph glyph-name="Acircumflex" unicode="&#xc2;" horiz-adv-x="760" 
d="M14 0l316 900h100l317 -900h-114l-131 374h-265l-132 -374h-91zM472 459l-103 292l-103 -292h206zM380 1065l-76 -98h-97l108 180h130l108 -180h-97z" />
    <glyph glyph-name="w" unicode="w" horiz-adv-x="884" 
d="M7 738h113l198 -584l78 233l-118 351h113l62 -184l62 184h91l-108 -318l90 -266l198 584h91l-250 -738h-100l-85 253l-86 -253h-100z" />
    <glyph glyph-name="braceright" unicode="}" horiz-adv-x="418" 
d="M356 249c-37 0 -90 -19 -90 -57v-355c0 -71 -65 -116 -126 -154c-19 -12 -38 -23 -58 -32l-36 76c47 22 113 56 113 110v355c0 43 22 81 54 110c-32 29 -54 68 -54 111v355c0 54 -66 88 -113 110l36 76c20 -9 39 -20 58 -32c61 -38 126 -83 126 -154v-355
c0 -38 53 -57 90 -57v-107z" />
    <glyph glyph-name="nacute" unicode="&#x144;" 
d="M351 663c-72 0 -162 -45 -162 -119v-544h-107v738h107v-63c40 43 100 73 162 73h11c111 0 213 -93 213 -204v-544h-107v544c0 59 -46 119 -106 119h-11zM375 1125h134l-151 -180h-99z" />
    <glyph glyph-name="lslash" unicode="&#x142;" horiz-adv-x="315" 
d="M104 557v423h107v-339l71 56v-120l-71 -56v-521h-107v437l-71 -56v120z" />
    <glyph glyph-name="Ccaron" unicode="&#x10c;" horiz-adv-x="925" 
d="M492 75c131 0 275 78 296 198l103 -25c-37 -154 -223 -258 -399 -258h-25c-102 0 -203 31 -284 93c-70 53 -121 130 -121 217v300c0 87 51 164 121 217c81 62 182 93 284 93h25c176 0 362 -104 399 -258l-103 -25c-21 120 -165 198 -296 198h-25c-75 0 -149 -23 -209 -68
c-51 -39 -89 -93 -89 -157v-300c0 -64 38 -119 89 -158c60 -45 134 -67 209 -67h25zM556 1147h96l-107 -180h-131l-107 180h96l77 -97z" />
    <glyph glyph-name="Uacute" unicode="&#xda;" horiz-adv-x="814" 
d="M722 900v-691c0 -63 -40 -116 -92 -153c-62 -44 -138 -66 -215 -66h-16c-77 0 -153 22 -215 66c-52 37 -92 90 -92 153v691h107v-691c0 -39 27 -72 60 -94c41 -28 90 -40 140 -40h16c50 0 99 12 140 40c33 22 60 55 60 94v691h107zM453 1147h134l-151 -180h-99z" />
    <glyph glyph-name="v" unicode="v" horiz-adv-x="575" 
d="M7 738h112l179 -571l178 571h93l-231 -738h-100z" />
    <glyph glyph-name="E" unicode="E" horiz-adv-x="637" 
d="M96 0v900h493v-85h-386v-107h333v-84h-333v-539h386v-85h-493z" />
    <glyph glyph-name="B" unicode="B" horiz-adv-x="719" 
d="M658 257c0 -141 -134 -257 -274 -257h-288v900h288c56 0 111 -9 162 -32c34 -16 69 -38 69 -75v-29c0 -36 -56 -51 -92 -60c72 -42 135 -125 135 -219v-228zM203 815v-73h181c29 0 58 1 87 6c16 3 37 7 37 16v29c0 9 -21 12 -37 15c-29 5 -58 7 -87 7h-181zM550 485
c0 90 -76 172 -166 172h-181v-572h181c90 0 166 82 166 172v228z" />
    <glyph glyph-name="s" unicode="s" horiz-adv-x="548" 
d="M399 594c-6 46 -71 69 -120 69h-10c-30 0 -60 -7 -85 -23c-19 -12 -36 -29 -36 -52v-101c0 -23 17 -41 36 -53c25 -16 55 -22 85 -22h10c57 0 114 -16 160 -49c38 -27 68 -66 68 -112v-101c0 -46 -30 -85 -68 -112c-46 -33 -103 -48 -160 -48h-10c-81 0 -165 37 -205 93
l85 59c8 -44 72 -67 120 -67h10c30 0 60 7 85 23c19 12 36 29 36 52v101c0 23 -17 41 -36 53c-25 16 -55 22 -85 22h-10c-57 0 -114 16 -160 49c-38 27 -68 66 -68 112v101c0 46 30 85 68 112c46 33 103 48 160 48h10c83 0 170 -38 208 -97z" />
    <glyph glyph-name="OE" unicode="&#x152;" horiz-adv-x="1151" 
d="M693 600c0 127 -126 225 -252 225h-21c-126 0 -251 -98 -251 -225v-300c0 -127 125 -225 251 -225h21c126 0 252 98 252 225v300zM62 600c0 178 182 310 358 310h21c94 0 181 -33 252 -93v83h410v-85h-303v-107h249v-84h-249v-539h303v-85h-410v83
c-71 -60 -158 -93 -252 -93h-21c-176 0 -358 132 -358 310v300z" />
    <glyph glyph-name="caron" unicode="&#x2c7;" horiz-adv-x="288" 
d="M220 900h97l-108 -180h-130l-108 180h97l76 -97z" />
    <glyph glyph-name="eth" unicode="&#xf0;" horiz-adv-x="719" 
d="M360 75c95 0 184 80 184 176c0 132 -28 261 -79 379c-31 21 -67 33 -105 33h-15c-95 0 -183 -80 -183 -176v-236c0 -96 88 -176 183 -176h15zM406 743c-2 3 -3 6 -5 9l-16 -6c7 -1 14 -1 21 -3zM55 487c0 107 81 197 168 235v58l128 44c-43 57 -93 110 -149 156h142
c39 -38 74 -78 106 -121l196 68v-90l-147 -51c98 -159 152 -345 152 -535c0 -147 -146 -261 -291 -261h-15c-145 0 -290 114 -290 261v236z" />
    <glyph glyph-name="Rcaron" unicode="&#x158;" horiz-adv-x="692" 
d="M96 0v900h270c70 0 140 -11 204 -41c44 -20 88 -50 88 -96v-69c0 -46 -44 -76 -88 -96c-57 -27 -120 -39 -183 -41l298 -557h-125l-287 557h-70v-557h-107zM391 1147h97l-108 -180h-130l-108 180h97l76 -97zM203 815v-173h163c44 0 87 3 129 15c25 7 55 16 55 37v69
c0 21 -30 29 -55 36c-42 12 -85 16 -129 16h-163z" />
    <glyph glyph-name="zacute" unicode="&#x17a;" horiz-adv-x="507" 
d="M34 653v85h439v-100l-326 -553h326v-85h-439v100l326 553h-326zM300 1125h133l-151 -180h-98z" />
    <glyph glyph-name="uring" unicode="&#x16f;" 
d="M328 75c67 0 133 52 133 119v544h108v-738h-108v54c-34 -38 -81 -64 -133 -64h-12c-117 0 -241 86 -241 204v544h107v-544c0 -67 67 -119 134 -119h12zM379 1060c0 24 -32 37 -55 37h-4c-23 0 -55 -13 -55 -37v-49c0 -24 32 -37 55 -37h4c23 0 55 13 55 37v49zM194 1060
c0 58 69 94 126 94h4c57 0 126 -36 126 -94v-49c0 -58 -69 -94 -126 -94h-4c-57 0 -126 36 -126 94v49z" />
    <glyph glyph-name="I" unicode="I" horiz-adv-x="326" 
d="M110 0v900h107v-900h-107z" />
    <glyph glyph-name="ntilde" unicode="&#xf1;" 
d="M351 663c-72 0 -162 -45 -162 -119v-544h-107v738h107v-63c40 43 100 73 162 73h11c111 0 213 -93 213 -204v-544h-107v544c0 59 -46 119 -106 119h-11zM267 1000c-26 0 -47 -24 -47 -50h-86c0 69 65 126 133 126c44 0 79 -37 123 -37c26 0 47 24 47 50h86
c0 -69 -65 -126 -133 -126c-44 0 -79 37 -123 37z" />
    <glyph glyph-name="Uring" unicode="&#x16e;" horiz-adv-x="814" 
d="M722 900v-691c0 -63 -40 -116 -92 -153c-62 -44 -138 -66 -215 -66h-16c-77 0 -153 22 -215 66c-52 37 -92 90 -92 153v691h107v-691c0 -39 27 -72 60 -94c41 -28 90 -40 140 -40h16c50 0 99 12 140 40c33 22 60 55 60 94v691h107zM464 1082c0 24 -32 37 -55 37h-4
c-23 0 -55 -13 -55 -37v-49c0 -24 32 -37 55 -37h4c23 0 55 13 55 37v49zM279 1082c0 58 69 94 126 94h4c57 0 126 -36 126 -94v-49c0 -58 -69 -94 -126 -94h-4c-57 0 -126 36 -126 94v49z" />
    <glyph glyph-name="tcedilla" unicode="&#x163;" horiz-adv-x="370" 
d="M271 -190c0 34 -50 51 -83 51h-86l35 139h-6v653h-113v85h113v242h107v-242h114v-85h-114v-653h-22l-18 -71c69 -3 159 -47 159 -119v-67c0 -34 -23 -63 -51 -83c-34 -24 -76 -36 -118 -36h-6c-70 0 -150 39 -166 100l83 19c0 -34 50 -51 83 -51h6c33 0 83 17 83 51v67z
" />
    <glyph glyph-name="ucircumflex" unicode="&#xfb;" 
d="M328 75c67 0 133 52 133 119v544h108v-738h-108v54c-34 -38 -81 -64 -133 -64h-12c-117 0 -241 86 -241 204v544h107v-544c0 -67 67 -119 134 -119h12zM322 1043l-76 -98h-97l108 180h130l108 -180h-97z" />
    <glyph glyph-name="Egrave" unicode="&#xc8;" horiz-adv-x="637" 
d="M96 0v900h493v-85h-386v-107h333v-84h-333v-539h386v-85h-493zM163 1147h133l116 -180h-98z" />
    <glyph glyph-name="j" unicode="j" horiz-adv-x="288" 
d="M30 -275c40 0 68 44 68 83v930h108v-930c0 -91 -85 -168 -176 -168h-5c-76 0 -144 53 -167 116l100 36c5 -32 31 -67 67 -67h5zM85 1009c0 38 34 71 72 71s72 -33 72 -71s-34 -72 -72 -72s-72 34 -72 72z" />
    <glyph glyph-name="Oacute" unicode="&#xd3;" horiz-adv-x="959" 
d="M526 1147h133l-151 -180h-98zM492 825h-25c-75 0 -149 -23 -209 -68c-51 -39 -89 -93 -89 -157v-300c0 -64 38 -119 89 -158c60 -45 134 -67 209 -67h25c75 0 149 22 209 67c51 39 89 94 89 158v300c0 64 -38 118 -89 157c-60 45 -134 68 -209 68zM492 910
c102 0 203 -31 284 -93c70 -53 121 -130 121 -217v-300c0 -87 -51 -164 -121 -217c-81 -62 -182 -93 -284 -93h-25c-102 0 -203 31 -284 93c-70 53 -121 130 -121 217v300c0 87 51 164 121 217c81 62 182 93 284 93h25z" />
    <glyph glyph-name="ae" unicode="&#xe6;" horiz-adv-x="1014" 
d="M62 282c0 107 131 174 235 174h11c48 0 94 -21 128 -54v112c0 73 -54 149 -128 149h-11c-59 0 -105 -51 -121 -101l-95 43c35 77 120 143 216 143h11c76 0 148 -43 189 -98c46 56 120 98 198 98h12c138 0 259 -123 259 -261v-161h-423v-75c0 -86 65 -176 152 -176h12
c37 0 74 8 106 28c24 15 45 37 46 64l105 -19c-18 -99 -148 -158 -257 -158h-12c-72 0 -139 34 -187 85c-43 -51 -123 -85 -200 -85h-11c-59 0 -117 17 -165 52c-40 30 -70 73 -70 122v118zM436 282c0 57 -73 89 -128 89h-11c-55 0 -128 -32 -128 -89v-118
c0 -57 73 -89 128 -89h11c55 0 128 32 128 89v118zM695 663c-87 0 -152 -90 -152 -176v-75h316v75c0 86 -65 176 -152 176h-12z" />
    <glyph glyph-name="c" unicode="c" horiz-adv-x="655" 
d="M350 75c87 0 161 74 172 155l104 -20c-22 -121 -142 -220 -276 -220h-15c-143 0 -280 117 -280 261v236c0 144 137 261 280 261h15c134 0 254 -99 276 -220l-104 -20c-11 81 -84 155 -172 155h-15c-93 0 -173 -83 -173 -176v-236c0 -93 80 -176 173 -176h15z" />
    <glyph glyph-name="Lcaron" unicode="&#x13d;" horiz-adv-x="630" 
d="M96 0v900h107v-815h386v-85h-493zM406 900h111l-128 -292h-83z" />
    <glyph glyph-name="D" unicode="D" horiz-adv-x="863" 
d="M96 0v900h289c103 0 204 -30 287 -91c70 -52 123 -127 123 -213v-292c0 -86 -53 -161 -123 -213c-83 -61 -184 -91 -287 -91h-289zM203 85h182c76 0 151 22 212 66c51 37 91 90 91 153v292c0 63 -40 116 -91 153c-61 44 -136 66 -212 66h-182v-730z" />
    <glyph glyph-name="icircumflex" unicode="&#xee;" horiz-adv-x="260" 
d="M77 0v738h107v-738h-107zM130 1043l-76 -98h-97l108 180h130l108 -180h-97z" />
    <glyph glyph-name="gbreve" unicode="&#x11f;" horiz-adv-x="699" 
d="M343 748c68 0 128 -41 166 -93v83h107v-883c0 -129 -146 -215 -273 -215h-14c-119 0 -242 71 -269 174l103 27c10 -70 91 -116 166 -116h14c77 0 166 52 166 130v238c-38 -52 -98 -93 -166 -93h-14c-141 0 -274 116 -274 258v232c0 142 133 258 274 258h14zM530 1136v-62
c0 -36 -26 -65 -57 -85c-40 -25 -86 -36 -133 -36h-9c-47 0 -93 11 -133 36c-31 20 -57 49 -57 85v62h86v-62c0 -16 16 -25 31 -32c23 -10 48 -14 73 -14h9c25 0 50 4 73 14c15 7 31 16 31 32v62h86zM509 490c0 90 -76 173 -166 173h-14c-90 0 -167 -83 -167 -173v-232
c0 -90 77 -173 167 -173h14c90 0 166 83 166 173v232z" />
    <glyph glyph-name="ij" unicode="&#x133;" horiz-adv-x="630" 
d="M123 738h107v-738h-107v738zM347 -275c46 0 94 36 94 83v930h107v-930c0 -98 -105 -168 -201 -168h-8c-83 0 -162 49 -190 116l97 41c7 -40 49 -72 93 -72h8zM432 998c0 38 33 72 71 72s72 -34 72 -72s-34 -72 -72 -72s-71 34 -71 72zM96 998c0 38 34 72 72 72
s72 -34 72 -72s-34 -72 -72 -72s-72 34 -72 72z" />
    <glyph glyph-name="n" unicode="n" 
d="M351 663c-72 0 -162 -45 -162 -119v-544h-107v738h107v-63c40 43 100 73 162 73h11c111 0 213 -93 213 -204v-544h-107v544c0 59 -46 119 -106 119h-11z" />
    <glyph glyph-name="percent" unicode="%" horiz-adv-x="1123" 
d="M217 -45l567 990h123l-568 -990h-122zM388 732c0 44 -38 83 -82 83h-7c-44 0 -82 -39 -82 -83v-111c0 -44 38 -83 82 -83h7c44 0 82 39 82 83v111zM110 732c0 95 95 168 189 168h7c94 0 189 -73 189 -168v-111c0 -95 -95 -169 -189 -169h-7c-94 0 -189 74 -189 169v111z
M907 279c0 44 -39 83 -83 83h-7c-44 0 -82 -39 -82 -83v-111c0 -44 38 -83 82 -83h7c44 0 83 39 83 83v111zM628 279c0 95 95 169 189 169h7c94 0 190 -74 190 -169v-111c0 -95 -96 -168 -190 -168h-7c-94 0 -189 73 -189 168v111z" />
    <glyph glyph-name="q" unicode="q" horiz-adv-x="699" 
d="M343 748c68 0 128 -42 166 -94v84h107v-1088h-107v434c-38 -52 -98 -94 -166 -94h-14c-142 0 -274 119 -274 261v236c0 142 132 261 274 261h14zM509 487c0 91 -75 176 -166 176h-14c-91 0 -167 -85 -167 -176v-236c0 -91 76 -176 167 -176h14c91 0 166 85 166 176v236z
" />
    <glyph glyph-name="Racute" unicode="&#x154;" horiz-adv-x="692" 
d="M96 0v900h270c70 0 140 -11 204 -41c44 -20 88 -50 88 -96v-69c0 -46 -44 -76 -88 -96c-57 -27 -120 -39 -183 -41l298 -557h-125l-287 557h-70v-557h-107zM361 1147h134l-151 -180h-99zM203 815v-173h163c44 0 87 3 129 15c25 7 55 16 55 37v69c0 21 -30 29 -55 36
c-42 12 -85 16 -129 16h-163z" />
    <glyph glyph-name="x" unicode="x" horiz-adv-x="555" 
d="M35 738h120l129 -247l137 247h99l-187 -339l208 -399h-120l-150 287l-158 -287h-99l209 379z" />
    <glyph glyph-name="S" unicode="S" horiz-adv-x="712" 
d="M78 105l85 58c5 -26 29 -44 54 -58c39 -21 83 -30 128 -30h15c45 0 90 9 129 30c28 15 55 38 55 70v133c0 32 -27 55 -55 70c-39 21 -84 30 -129 30h-15c-72 0 -143 17 -203 55c-47 30 -87 74 -87 129v133c0 55 40 100 87 130c60 38 131 55 203 55h15
c104 0 219 -43 268 -116l-85 -58c-5 26 -29 45 -54 59c-39 21 -84 30 -129 30h-15c-45 0 -89 -9 -128 -30c-28 -15 -55 -38 -55 -70v-133c0 -32 27 -55 55 -70c39 -21 83 -30 128 -30h15c72 0 144 -17 204 -55c47 -30 87 -74 87 -129v-133c0 -55 -40 -100 -87 -130
c-60 -38 -132 -55 -204 -55h-15c-104 0 -218 43 -267 115z" />
    <glyph glyph-name="A" unicode="A" horiz-adv-x="760" 
d="M14 0l316 900h100l317 -900h-114l-131 374h-265l-132 -374h-91zM472 459l-103 292l-103 -292h206z" />
    <glyph glyph-name="Y" unicode="Y" horiz-adv-x="712" 
d="M7 900h133l224 -293l224 293h118l-296 -387v-513h-107v513z" />
    <glyph glyph-name="oslash" unicode="&#xf8;" horiz-adv-x="685" 
d="M335 663c-93 0 -173 -83 -173 -176v-236c0 -16 3 -31 7 -46l288 418c-30 25 -67 40 -107 40h-15zM55 487c0 144 137 261 280 261h15c57 0 112 -17 159 -49l27 39h122l-76 -109c30 -41 48 -90 48 -142v-236c0 -144 -137 -261 -280 -261h-15c-57 0 -112 17 -159 49l-28 -39
h-121l76 109c-30 41 -48 90 -48 142v236zM350 75c93 0 173 83 173 176v236c0 16 -3 31 -7 46l-288 -418c30 -25 67 -40 107 -40h15z" />
    <glyph glyph-name="dieresis" unicode="&#xa8;" horiz-adv-x="288" 
d="M-51 783c0 38 34 72 72 72s71 -34 71 -72s-33 -72 -71 -72s-72 34 -72 72zM195 783c0 38 34 72 72 72s72 -34 72 -72s-34 -72 -72 -72s-72 34 -72 72z" />
    <glyph glyph-name="o" unicode="o" horiz-adv-x="685" 
d="M523 487c0 93 -80 176 -173 176h-15c-93 0 -173 -83 -173 -176v-236c0 -93 80 -176 173 -176h15c93 0 173 83 173 176v236zM55 487c0 144 137 261 280 261h15c143 0 280 -117 280 -261v-236c0 -144 -137 -261 -280 -261h-15c-143 0 -280 117 -280 261v236z" />
    <glyph glyph-name="sacute" unicode="&#x15b;" horiz-adv-x="548" 
d="M399 594c-6 46 -71 69 -120 69h-10c-30 0 -60 -7 -85 -23c-19 -12 -36 -29 -36 -52v-101c0 -23 17 -41 36 -53c25 -16 55 -22 85 -22h10c57 0 114 -16 160 -49c38 -27 68 -66 68 -112v-101c0 -46 -30 -85 -68 -112c-46 -33 -103 -48 -160 -48h-10c-81 0 -165 37 -205 93
l85 59c8 -44 72 -67 120 -67h10c30 0 60 7 85 23c19 12 36 29 36 52v101c0 23 -17 41 -36 53c-25 16 -55 22 -85 22h-10c-57 0 -114 16 -160 49c-38 27 -68 66 -68 112v101c0 46 30 85 68 112c46 33 103 48 160 48h10c83 0 170 -38 208 -97zM320 1125h134l-151 -180h-99z
" />
    <glyph glyph-name="J" unicode="J" horiz-adv-x="603" 
d="M256 75c67 0 151 41 151 109v716h107v-716c0 -55 -33 -103 -77 -136c-52 -39 -116 -58 -181 -58h-12c-98 0 -197 49 -238 122l90 51c15 -54 85 -88 148 -88h12z" />
    <glyph glyph-name="dotaccent" unicode="&#x2d9;" horiz-adv-x="247" 
d="M51 783c0 38 34 72 72 72s72 -34 72 -72s-34 -72 -72 -72s-72 34 -72 72z" />
    <glyph glyph-name="y" unicode="y" horiz-adv-x="575" 
d="M7 738h112l179 -552l178 552h93l-352 -1088h-92l116 362z" />
    <glyph glyph-name="yacute" unicode="&#xfd;" horiz-adv-x="575" 
d="M7 738h112l179 -552l178 552h93l-352 -1088h-92l116 362zM334 1125h133l-150 -180h-99z" />
    <glyph glyph-name="dotlessj" unicode="&#x237;" horiz-adv-x="288" 
d="M30 -275c40 0 68 44 68 83v930h108v-930c0 -91 -85 -168 -176 -168h-5c-76 0 -144 53 -167 116l100 36c5 -32 31 -67 67 -67h5z" />
    <glyph glyph-name="braceleft" unicode="{" horiz-adv-x="418" 
d="M318 -339c-70 38 -166 92 -166 176v355c0 38 -53 57 -90 57v107c37 0 90 19 90 57v355c0 84 96 138 166 176l39 -75c-44 -23 -98 -51 -98 -101v-355c0 -43 -22 -82 -54 -111c32 -29 54 -67 54 -110v-355c0 -50 54 -78 98 -101z" />
    <glyph glyph-name="numbersign" unicode="#" horiz-adv-x="740" 
d="M27 272v86h145l32 184h-149v85h163l47 273h107l-46 -273h149l47 273h107l-47 -273h130v-85h-144l-32 -184h149v-86h-163l-47 -272h-107l46 272h-149l-47 -272h-107l46 272h-130zM429 358l32 184h-150l-32 -184h150z" />
    <glyph glyph-name="quoteleft" unicode="&#x2018;" horiz-adv-x="349" 
d="M187 900h83l-100 -292h-111z" />
    <glyph glyph-name="ffl" unicode="&#xfb04;" horiz-adv-x="952" 
d="M606 905c-17 0 -47 -7 -47 -25v-142h107v-85h-107v-653h-107v653h-205v-653h-107v653h-95v85h95v142c0 69 86 110 154 110h4c49 0 100 -20 129 -52l-82 -58c0 18 -30 25 -47 25h-4c-17 0 -47 -7 -47 -25v-142h205v142c0 69 86 110 154 110h4c49 0 100 -20 129 -52
l-82 -58c0 18 -30 25 -47 25h-4zM763 0v980h107v-980h-107z" />
    <glyph glyph-name="perthousandzero" horiz-adv-x="473" 
d="M324 279c0 45 -39 83 -84 83h-7c-45 0 -85 -38 -85 -83v-111c0 -45 40 -83 85 -83h7c45 0 84 38 84 83v111zM41 279c0 96 97 169 192 169h7c95 0 192 -73 192 -169v-111c0 -96 -97 -168 -192 -168h-7c-95 0 -192 72 -192 168v111z" />
    <glyph glyph-name="lcaron" unicode="&#x13e;" horiz-adv-x="272" 
d="M82 0v980h107v-980h-107zM335 980h111l-128 -292h-83z" />
    <glyph glyph-name="three" unicode="3" 
d="M461 725c0 65 -87 100 -150 100h-12c-63 0 -146 -34 -151 -95l-102 28c26 93 145 152 253 152h12c64 0 128 -17 180 -55c43 -31 78 -77 78 -130v-133c0 -64 -67 -107 -122 -129c59 -28 122 -83 122 -155v-133c0 -53 -35 -99 -78 -130c-52 -38 -116 -55 -180 -55h-12
c-108 0 -227 59 -253 152l102 28c5 -61 88 -95 151 -95h12c63 0 150 35 150 100v133c0 65 -87 100 -150 100h-64v84h64c63 0 150 35 150 100v133z" />
    <glyph glyph-name="Ucircumflex" unicode="&#xdb;" horiz-adv-x="814" 
d="M722 900v-691c0 -63 -40 -116 -92 -153c-62 -44 -138 -66 -215 -66h-16c-77 0 -153 22 -215 66c-52 37 -92 90 -92 153v691h107v-691c0 -39 27 -72 60 -94c41 -28 90 -40 140 -40h16c50 0 99 12 140 40c33 22 60 55 60 94v691h107zM407 1065l-76 -98h-97l108 180h130
l108 -180h-97z" />
    <glyph glyph-name="ohungarumlaut" unicode="&#x151;" horiz-adv-x="685" 
d="M171 945l107 180h129l-140 -180h-96zM483 1125h130l-140 -180h-96zM523 487c0 93 -80 176 -173 176h-15c-93 0 -173 -83 -173 -176v-236c0 -93 80 -176 173 -176h15c93 0 173 83 173 176v236zM55 487c0 144 137 261 280 261h15c143 0 280 -117 280 -261v-236
c0 -144 -137 -261 -280 -261h-15c-143 0 -280 117 -280 261v236z" />
    <glyph glyph-name="bracketleft" unicode="[" horiz-adv-x="384" 
d="M123 -350v1295h219v-85h-112v-1125h112v-85h-219z" />
    <glyph glyph-name="oacute" unicode="&#xf3;" horiz-adv-x="685" 
d="M389 1125h133l-151 -180h-98zM523 487c0 93 -80 176 -173 176h-15c-93 0 -173 -83 -173 -176v-236c0 -93 80 -176 173 -176h15c93 0 173 83 173 176v236zM55 487c0 144 137 261 280 261h15c143 0 280 -117 280 -261v-236c0 -144 -137 -261 -280 -261h-15
c-143 0 -280 117 -280 261v236z" />
    <glyph glyph-name="nine" unicode="9" horiz-adv-x="671" 
d="M610 206c0 -129 -147 -216 -274 -216h-14c-118 0 -239 70 -268 172l102 29c11 -69 91 -116 166 -116h14c77 0 167 52 167 131v208c-41 -44 -103 -74 -167 -74h-14c-69 0 -137 21 -192 62c-47 35 -82 85 -82 143v160c0 58 35 108 82 143c55 41 123 62 192 62h14
c69 0 136 -21 191 -62c47 -35 83 -85 83 -143v-499zM503 705c0 75 -94 120 -167 120h-14c-73 0 -167 -45 -167 -120v-160c0 -75 94 -120 167 -120h14c73 0 167 45 167 120v160z" />
    <glyph glyph-name="backslash" unicode="\" horiz-adv-x="514" 
d="M370 -45l-343 990h116l343 -990h-116z" />
    <glyph glyph-name="atilde" unicode="&#xe3;" horiz-adv-x="644" 
d="M314 748c127 0 248 -106 248 -234v-514h-107v46c-37 -35 -89 -56 -141 -56h-12c-62 0 -122 17 -173 52c-41 29 -74 72 -74 122v118c0 50 33 92 74 121c51 35 111 53 173 53h12c52 0 104 -22 141 -57v115c0 77 -64 149 -141 149h-12c-63 0 -115 -50 -133 -103l-93 45
c37 78 126 143 226 143h12zM247 1000c-26 0 -47 -24 -47 -50h-86c0 69 65 126 133 126c44 0 79 -37 123 -37c26 0 47 24 47 50h86c0 -69 -65 -126 -133 -126c-44 0 -79 37 -123 37zM162 164c0 -59 83 -89 140 -89h12c35 0 69 9 98 27c23 14 43 35 43 62v118
c0 27 -20 48 -43 62c-29 18 -63 27 -98 27h-12c-57 0 -140 -30 -140 -89v-118z" />
    <glyph glyph-name="Aacute" unicode="&#xc1;" horiz-adv-x="760" 
d="M14 0l316 900h100l317 -900h-114l-131 374h-265l-132 -374h-91zM427 1147h133l-151 -180h-99zM472 459l-103 292l-103 -292h206z" />
    <glyph glyph-name="ccedilla" unicode="&#xe7;" horiz-adv-x="655" 
d="M514 -257c0 -75 -95 -119 -168 -119h-7c-70 0 -150 39 -166 100l84 19c0 -34 49 -51 82 -51h7c33 0 82 17 82 51v67c0 34 -49 51 -82 51h-86l33 132c-122 19 -238 125 -238 258v236c0 144 137 261 280 261h15c134 0 254 -99 276 -220l-104 -20c-11 81 -84 155 -172 155
h-15c-93 0 -173 -83 -173 -176v-236c0 -93 80 -176 173 -176h15c87 0 161 74 172 155l104 -20c-21 -116 -132 -209 -255 -219l-15 -62c69 -3 158 -47 158 -119v-67z" />
    <glyph glyph-name="Lslash" unicode="&#x141;" horiz-adv-x="644" 
d="M603 0h-493v313l-83 -54v112l83 54v475h107v-405l221 146v-112l-221 -145v-299h386v-85z" />
    <glyph glyph-name="Sacute" unicode="&#x15a;" horiz-adv-x="712" 
d="M78 105l85 58c5 -26 29 -44 54 -58c39 -21 83 -30 128 -30h15c45 0 90 9 129 30c28 15 55 38 55 70v133c0 32 -27 55 -55 70c-39 21 -84 30 -129 30h-15c-72 0 -143 17 -203 55c-47 30 -87 74 -87 129v133c0 55 40 100 87 130c60 38 131 55 203 55h15
c104 0 219 -43 268 -116l-85 -58c-5 26 -29 45 -54 59c-39 21 -84 30 -129 30h-15c-45 0 -89 -9 -128 -30c-28 -15 -55 -38 -55 -70v-133c0 -32 27 -55 55 -70c39 -21 83 -30 128 -30h15c72 0 144 -17 204 -55c47 -30 87 -74 87 -129v-133c0 -55 -40 -100 -87 -130
c-60 -38 -132 -55 -204 -55h-15c-104 0 -218 43 -267 115zM399 1125h133l-150 -180h-99z" />
    <glyph glyph-name="visiblespace" unicode="&#x2420;" horiz-adv-x="548" 
d="M27 0h107v-98h280v98h107v-182h-494v182z" />
    <glyph glyph-name="aring" unicode="&#xe5;" horiz-adv-x="644" 
d="M314 748c127 0 248 -106 248 -234v-514h-107v46c-37 -35 -89 -56 -141 -56h-12c-62 0 -122 17 -173 52c-41 29 -74 72 -74 122v118c0 50 33 92 74 121c51 35 111 53 173 53h12c52 0 104 -22 141 -57v115c0 77 -64 149 -141 149h-12c-63 0 -115 -50 -133 -103l-93 45
c37 78 126 143 226 143h12zM162 164c0 -59 83 -89 140 -89h12c35 0 69 9 98 27c23 14 43 35 43 62v118c0 27 -20 48 -43 62c-29 18 -63 27 -98 27h-12c-57 0 -140 -30 -140 -89v-118zM365 1060c0 24 -31 37 -54 37h-5c-23 0 -55 -13 -55 -37v-49c0 -24 32 -37 55 -37h5
c23 0 54 13 54 37v49zM180 1060c0 58 69 94 126 94h5c57 0 125 -36 125 -94v-49c0 -58 -68 -94 -125 -94h-5c-57 0 -126 36 -126 94v49z" />
    <glyph glyph-name="m" unicode="m" horiz-adv-x="993" 
d="M338 663c-70 0 -149 -48 -149 -119v-544h-107v738h107v-59c37 41 92 69 149 69h11c76 0 145 -48 178 -106c33 58 101 106 176 106h10c109 0 205 -95 205 -204v-544h-107v544c0 57 -40 119 -98 119h-10c-70 0 -149 -48 -149 -119v-544h-108v544c0 57 -39 119 -97 119h-11z
" />
    <glyph glyph-name="ograve" unicode="&#xf2;" horiz-adv-x="685" 
d="M163 1125h133l116 -180h-98zM523 487c0 93 -80 176 -173 176h-15c-93 0 -173 -83 -173 -176v-236c0 -93 80 -176 173 -176h15c93 0 173 83 173 176v236zM55 487c0 144 137 261 280 261h15c143 0 280 -117 280 -261v-236c0 -144 -137 -261 -280 -261h-15
c-143 0 -280 117 -280 261v236z" />
    <glyph glyph-name="Cacute" unicode="&#x106;" horiz-adv-x="925" 
d="M492 75c131 0 275 78 296 198l103 -25c-37 -154 -223 -258 -399 -258h-25c-102 0 -203 31 -284 93c-70 53 -121 130 -121 217v300c0 87 51 164 121 217c81 62 182 93 284 93h25c176 0 362 -104 399 -258l-103 -25c-21 120 -165 198 -296 198h-25c-75 0 -149 -23 -209 -68
c-51 -39 -89 -93 -89 -157v-300c0 -64 38 -119 89 -158c60 -45 134 -67 209 -67h25zM526 1147h133l-151 -180h-98z" />
    <glyph glyph-name="six" unicode="6" horiz-adv-x="671" 
d="M62 694c0 129 147 216 274 216h13c118 0 239 -70 268 -172l-102 -29c-11 69 -91 116 -166 116h-13c-77 0 -167 -52 -167 -131v-208c41 44 103 74 167 74h13c69 0 137 -21 192 -62c47 -35 82 -85 82 -143v-160c0 -58 -35 -108 -82 -143c-55 -41 -123 -62 -192 -62h-13
c-69 0 -137 21 -192 62c-47 35 -82 85 -82 143v499zM169 195c0 -75 94 -120 167 -120h13c73 0 167 45 167 120v160c0 75 -94 120 -167 120h-13c-73 0 -167 -45 -167 -120v-160z" />
    <glyph glyph-name="egrave" unicode="&#xe8;" horiz-adv-x="678" 
d="M162 251c0 -93 80 -176 173 -176h15c42 0 84 8 121 28c27 14 52 35 52 65l105 -20c-9 -43 -43 -79 -82 -104c-58 -37 -127 -54 -196 -54h-15c-143 0 -280 117 -280 261v236c0 144 137 261 280 261h15c143 0 280 -117 280 -261v-161h-468v-75zM163 1125h133l116 -180h-98z
M335 663c-93 0 -173 -83 -173 -176v-75h361v75c0 93 -80 176 -173 176h-15z" />
    <glyph glyph-name="cwm" horiz-adv-x="0" 
d="M123 -0c0 -21 -16 -42 -42 -42c-22 0 -43 16 -43 42v900c0 21 17 42 43 42c22 0 42 -16 42 -42v-900z" />
    <glyph glyph-name="hyphen" unicode="-" horiz-adv-x="397" 
d="M55 326v86h287v-86h-287z" />
    <glyph glyph-name="scaron" unicode="&#x161;" horiz-adv-x="548" 
d="M399 594c-6 46 -71 69 -120 69h-10c-30 0 -60 -7 -85 -23c-19 -12 -36 -29 -36 -52v-101c0 -23 17 -41 36 -53c25 -16 55 -22 85 -22h10c57 0 114 -16 160 -49c38 -27 68 -66 68 -112v-101c0 -46 -30 -85 -68 -112c-46 -33 -103 -48 -160 -48h-10c-81 0 -165 37 -205 93
l85 59c8 -44 72 -67 120 -67h10c30 0 60 7 85 23c19 12 36 29 36 52v101c0 23 -17 41 -36 53c-25 16 -55 22 -85 22h-10c-57 0 -114 16 -160 49c-38 27 -68 66 -68 112v101c0 46 30 85 68 112c46 33 103 48 160 48h10c83 0 170 -38 208 -97zM350 1125h97l-108 -180h-130
l-108 180h97l76 -97z" />
    <glyph glyph-name="Zacute" unicode="&#x179;" horiz-adv-x="699" 
d="M34 815v85h630v-100l-515 -715h515v-85h-630v100l516 715h-516zM396 1147h133l-151 -180h-99z" />
    <glyph glyph-name="igrave" unicode="&#xec;" horiz-adv-x="260" 
d="M77 0v738h107v-738h-107zM-50 1125h134l116 -180h-99z" />
    <glyph glyph-name="acircumflex" unicode="&#xe2;" horiz-adv-x="644" 
d="M314 748c127 0 248 -106 248 -234v-514h-107v46c-37 -35 -89 -56 -141 -56h-12c-62 0 -122 17 -173 52c-41 29 -74 72 -74 122v118c0 50 33 92 74 121c51 35 111 53 173 53h12c52 0 104 -22 141 -57v115c0 77 -64 149 -141 149h-12c-63 0 -115 -50 -133 -103l-93 45
c37 78 126 143 226 143h12zM162 164c0 -59 83 -89 140 -89h12c35 0 69 9 98 27c23 14 43 35 43 62v118c0 27 -20 48 -43 62c-29 18 -63 27 -98 27h-12c-57 0 -140 -30 -140 -89v-118zM308 1043l-76 -98h-97l108 180h130l108 -180h-96z" />
    <glyph glyph-name="M" unicode="M" horiz-adv-x="1062" 
d="M96 0v900h100l335 -787l335 787h100v-900h-107v653l-278 -653h-100l-278 653v-653h-107z" />
    <glyph glyph-name="N" unicode="N" horiz-adv-x="856" 
d="M96 0v900h100l457 -719v719h107v-900h-100l-457 719v-719h-107z" />
    <glyph glyph-name="at" unicode="@" horiz-adv-x="918" 
d="M839 105c-78 -78 -235 -115 -368 -115h-24c-102 0 -203 31 -284 93c-70 53 -122 130 -122 217v300c0 87 52 164 122 217c81 62 182 93 284 93h24c102 0 203 -31 284 -93c70 -53 122 -130 122 -217v-209c0 -47 -30 -86 -68 -114c-46 -33 -101 -49 -158 -49h-112v41
c-27 -26 -61 -41 -98 -41h-8c-97 0 -206 68 -206 167v110c0 99 109 167 206 167h8c37 0 71 -15 98 -41v41h107v-360h5c50 0 119 28 119 79v209c0 64 -39 118 -90 157c-60 45 -134 68 -209 68h-24c-75 0 -149 -23 -209 -68c-51 -39 -90 -93 -90 -157v-300
c0 -64 39 -119 90 -158c60 -45 134 -67 209 -67h24c71 0 142 9 209 34c38 14 80 32 88 67zM539 505c0 48 -51 82 -98 82h-8c-47 0 -99 -34 -99 -82v-110c0 -48 52 -83 99 -83h8c47 0 98 35 98 83v110z" />
    <glyph glyph-name="idieresis" unicode="&#xef;" horiz-adv-x="260" 
d="M77 0v738h107v-738h-107zM-65 1009c0 38 34 71 72 71s72 -33 72 -71s-34 -72 -72 -72s-72 34 -72 72zM182 1009c0 38 33 71 71 71s72 -33 72 -71s-34 -72 -72 -72s-71 34 -71 72z" />
    <glyph glyph-name="colon" unicode=":" horiz-adv-x="326" 
d="M94 69c0 37 32 70 69 70s69 -33 69 -70s-32 -69 -69 -69s-69 32 -69 69zM94 669c0 37 32 69 69 69s69 -32 69 -69s-32 -70 -69 -70s-69 33 -69 70z" />
    <glyph glyph-name="l" unicode="l" horiz-adv-x="272" 
d="M82 0v980h107v-980h-107z" />
    <glyph glyph-name="Iacute" unicode="&#xcd;" horiz-adv-x="326" 
d="M110 0v900h107v-900h-107zM209 1147h134l-151 -180h-99z" />
    <glyph glyph-name="two" unicode="2" 
d="M475 725c0 65 -87 100 -150 100h-13c-63 0 -145 -34 -150 -95l-103 28c26 93 145 152 253 152h13c64 0 128 -17 180 -55c43 -31 77 -77 77 -130v-133c0 -53 -34 -98 -77 -129c-52 -38 -116 -55 -180 -55h-13c-75 0 -150 -60 -150 -136v-187h409v-85h-516v272
c0 127 132 220 257 220h13c63 0 150 35 150 100v133z" />
    <glyph glyph-name="zero" unicode="0" horiz-adv-x="712" 
d="M363 825h-14c-48 0 -93 -21 -122 -60c-35 -47 -45 -106 -45 -165v-300c0 -59 10 -118 45 -165c29 -39 74 -60 122 -60h14c48 0 94 21 123 60c35 47 44 106 44 165v300c0 59 -9 118 -44 165c-29 39 -75 60 -123 60zM363 910c76 0 151 -25 201 -82c55 -62 73 -146 73 -228
v-300c0 -82 -18 -166 -73 -228c-50 -57 -125 -82 -201 -82h-14c-76 0 -151 25 -201 82c-55 62 -73 146 -73 228v300c0 82 18 166 73 228c50 57 125 82 201 82h14z" />
    <glyph glyph-name="g" unicode="g" horiz-adv-x="699" 
d="M343 748c68 0 128 -41 166 -93v83h107v-883c0 -129 -146 -215 -273 -215h-14c-119 0 -242 71 -269 174l103 27c10 -70 91 -116 166 -116h14c77 0 166 52 166 130v238c-38 -52 -98 -93 -166 -93h-14c-141 0 -274 116 -274 258v232c0 142 133 258 274 258h14zM509 490
c0 90 -76 173 -166 173h-14c-90 0 -167 -83 -167 -173v-232c0 -90 77 -173 167 -173h14c90 0 166 83 166 173v232z" />
    <glyph glyph-name="Tcedilla" unicode="&#x162;" horiz-adv-x="630" 
d="M401 -190c0 34 -49 51 -82 51h-87l35 139h-5v815h-251v85h608v-85h-250v-815h-23l-17 -71c69 -3 158 -47 158 -119v-67c0 -34 -23 -63 -51 -83c-34 -24 -75 -36 -117 -36h-7c-70 0 -150 39 -166 100l83 19c0 -34 50 -51 83 -51h7c33 0 82 17 82 51v67z" />
    <glyph glyph-name="Tcaron" unicode="&#x164;" horiz-adv-x="630" 
d="M11 815v85h608v-85h-250v-815h-107v815h-251zM391 1147h97l-108 -180h-130l-108 180h97l76 -97z" />
    <glyph glyph-name="hungarumlaut" unicode="&#x2dd;" horiz-adv-x="288" 
d="M-28 720l107 180h130l-140 -180h-97zM284 900h130l-140 -180h-96z" />
    <glyph glyph-name="Lacute" unicode="&#x139;" horiz-adv-x="630" 
d="M96 0v900h107v-815h386v-85h-493zM196 1147h133l-151 -180h-98z" />
    <glyph glyph-name="quotesinglbase" unicode="&#x201a;" horiz-adv-x="349" 
d="M173 112h111l-128 -292h-82z" />
    <glyph glyph-name="grave" unicode="`" horiz-adv-x="274" 
d="M5 900h134l116 -180h-99z" />
    <glyph glyph-name="otilde" unicode="&#xf5;" horiz-adv-x="685" 
d="M281 1000c-26 0 -47 -24 -47 -50h-86c0 69 65 126 133 126c44 0 79 -37 123 -37c26 0 47 24 47 50h86c0 -69 -65 -126 -133 -126c-44 0 -79 37 -123 37zM523 487c0 93 -80 176 -173 176h-15c-93 0 -173 -83 -173 -176v-236c0 -93 80 -176 173 -176h15
c93 0 173 83 173 176v236zM55 487c0 144 137 261 280 261h15c143 0 280 -117 280 -261v-236c0 -144 -137 -261 -280 -261h-15c-143 0 -280 117 -280 261v236z" />
    <glyph glyph-name="uhungarumlaut" unicode="&#x171;" 
d="M328 75c67 0 133 52 133 119v544h108v-738h-108v54c-34 -38 -81 -64 -133 -64h-12c-117 0 -241 86 -241 204v544h107v-544c0 -67 67 -119 134 -119h12zM151 945l106 180h130l-140 -180h-96zM463 1125h129l-140 -180h-96z" />
    <glyph glyph-name="dcroat" unicode="&#x111;" horiz-adv-x="719" 
d="M55 487c0 142 132 261 274 261h7v78h173v154h107v-154h90v-84h-90v-742h-107v84c-38 -52 -98 -94 -166 -94h-14c-142 0 -274 119 -274 261v236zM509 487c0 91 -75 176 -166 176h-14c-91 0 -167 -85 -167 -176v-236c0 -91 76 -176 167 -176h14c91 0 166 85 166 176v236z
M509 654v88h-119c48 -13 90 -47 119 -88z" />
    <glyph glyph-name="K" unicode="K" horiz-adv-x="726" 
d="M96 900h107v-234l328 234h173l-349 -249l349 -651h-126l-314 586l-61 -44v-542h-107v900z" />
    <glyph glyph-name="zdotaccent" unicode="&#x17c;" horiz-adv-x="507" 
d="M34 653v85h439v-100l-326 -553h326v-85h-439v100l326 553h-326zM182 1009c0 38 33 71 71 71s72 -33 72 -71s-34 -72 -72 -72s-71 34 -71 72z" />
    <glyph glyph-name="period" unicode="." horiz-adv-x="326" 
d="M94 69c0 37 32 70 69 70s69 -33 69 -70s-32 -69 -69 -69s-69 32 -69 69z" />
    <glyph glyph-name="k" unicode="k" horiz-adv-x="596" 
d="M89 980h107v-617l280 375h106l-227 -304l227 -434h-124l-176 337l-86 -116v-221h-107v980z" />
    <glyph glyph-name="W" unicode="W" horiz-adv-x="1069" 
d="M14 900h113l254 -745l107 315l-146 430h113l90 -264l90 264h92l-136 -400l118 -345l254 745h92l-307 -900h-100l-114 334l-114 -334h-100z" />
    <glyph glyph-name="X" unicode="X" horiz-adv-x="678" 
d="M28 900h123l194 -336l202 336h103l-254 -423l275 -477h-123l-215 372l-223 -372h-103l276 459z" />
    <glyph glyph-name="ogonek" unicode="&#x2db;" horiz-adv-x="274" 
d="M279 -322c-32 -33 -87 -54 -139 -54h-6c-42 0 -84 12 -118 36c-28 20 -51 49 -51 83v67c0 65 78 88 116 136l94 122l22 -68l-94 -122c-18 -23 -52 -38 -52 -68v-67c0 -34 50 -51 83 -51h6c32 0 74 15 82 42z" />
    <glyph glyph-name="agrave" unicode="&#xe0;" horiz-adv-x="644" 
d="M314 748c127 0 248 -106 248 -234v-514h-107v46c-37 -35 -89 -56 -141 -56h-12c-62 0 -122 17 -173 52c-41 29 -74 72 -74 122v118c0 50 33 92 74 121c51 35 111 53 173 53h12c52 0 104 -22 141 -57v115c0 77 -64 149 -141 149h-12c-63 0 -115 -50 -133 -103l-93 45
c37 78 126 143 226 143h12zM129 1125h133l116 -180h-99zM162 164c0 -59 83 -89 140 -89h12c35 0 69 9 98 27c23 14 43 35 43 62v118c0 27 -20 48 -43 62c-29 18 -63 27 -98 27h-12c-57 0 -140 -30 -140 -89v-118z" />
    <glyph glyph-name="aogonek" unicode="&#x105;" horiz-adv-x="644" 
d="M302 663c-63 0 -115 -50 -133 -103l-93 45c37 78 126 143 226 143h12c127 0 248 -106 248 -234v-504l3 -10l-94 -122c-18 -23 -52 -38 -52 -68v-67c0 -34 49 -51 82 -51h7c32 0 73 15 81 42l58 -56c-32 -33 -87 -54 -139 -54h-7c-42 0 -83 12 -117 36
c-28 20 -51 49 -51 83v67c0 65 78 88 116 136l42 54h-36v46c-37 -35 -89 -56 -141 -56h-12c-62 0 -122 17 -173 52c-41 29 -74 72 -74 122v118c0 50 33 92 74 121c51 35 111 53 173 53h12c52 0 104 -22 141 -57v115c0 77 -64 149 -141 149h-12zM162 164
c0 -59 83 -89 140 -89h12c35 0 69 9 98 27c23 14 43 35 43 62v118c0 27 -20 48 -43 62c-29 18 -63 27 -98 27h-12c-57 0 -140 -30 -140 -89v-118z" />
    <glyph glyph-name="quotedbl" unicode="&#x22;" horiz-adv-x="404" 
d="M41 900h107v-292h-107v292zM363 900v-292h-107v292h107z" />
    <glyph glyph-name="t" unicode="t" horiz-adv-x="370" 
d="M18 653v85h113v242h107v-242h114v-85h-114v-653h-107v653h-113z" />
    <glyph glyph-name="question" unicode="?" horiz-adv-x="603" 
d="M534 592c0 -98 -103 -166 -193 -181v-137h-107v218h59c60 0 134 38 134 100v133c0 62 -74 100 -134 100h-11c-59 0 -127 -36 -133 -93l-104 26c23 91 133 152 237 152h11c61 0 121 -18 169 -55c41 -32 72 -78 72 -130v-133zM218 69c0 37 33 70 70 70s69 -33 69 -70
s-32 -69 -69 -69s-70 32 -70 69z" />
    <glyph glyph-name="Adieresis" unicode="&#xc4;" horiz-adv-x="760" 
d="M14 0l316 900h100l317 -900h-114l-131 374h-265l-132 -374h-91zM185 1031c0 38 34 71 72 71s72 -33 72 -71s-34 -72 -72 -72s-72 34 -72 72zM432 1031c0 38 33 71 71 71s72 -33 72 -71s-34 -72 -72 -72s-71 34 -71 72zM472 459l-103 292l-103 -292h206z" />
    <glyph glyph-name="five" unicode="5" horiz-adv-x="658" 
d="M496 371c0 71 -70 127 -141 127h-12c-57 0 -110 -30 -141 -77h-107v479h454v-85h-347v-296c35 40 86 63 141 63h12c121 0 248 -89 248 -211v-169c0 -59 -35 -111 -82 -148c-55 -42 -123 -64 -192 -64h-14c-107 0 -213 57 -255 138l92 47c18 -60 92 -100 163 -100h14
c76 0 167 50 167 127v169z" />
    <glyph glyph-name="Aring" unicode="&#xc5;" horiz-adv-x="760" 
d="M14 0l316 900h100l317 -900h-114l-131 374h-265l-132 -374h-91zM472 459l-103 292l-103 -292h206zM437 1082c0 24 -32 37 -55 37h-4c-23 0 -55 -13 -55 -37v-49c0 -24 32 -37 55 -37h4c23 0 55 13 55 37v49zM252 1082c0 58 69 94 126 94h4c57 0 126 -36 126 -94v-49
c0 -58 -69 -94 -126 -94h-4c-57 0 -126 36 -126 94v49z" />
    <glyph glyph-name="z" unicode="z" horiz-adv-x="507" 
d="M34 653v85h439v-100l-326 -553h326v-85h-439v100l326 553h-326z" />
    <glyph glyph-name="Ccedilla" unicode="&#xc7;" horiz-adv-x="925" 
d="M651 -257c0 -75 -95 -119 -168 -119h-7c-70 0 -150 39 -166 100l84 19c0 -34 49 -51 82 -51h7c33 0 82 17 82 51v67c0 34 -49 51 -82 51h-86l32 130c-89 7 -175 38 -246 92c-70 53 -121 130 -121 217v300c0 87 51 164 121 217c81 62 182 93 284 93h25
c176 0 362 -104 399 -258l-103 -25c-21 120 -165 198 -296 198h-25c-75 0 -149 -23 -209 -68c-51 -39 -89 -93 -89 -157v-300c0 -64 38 -119 89 -158c60 -45 134 -67 209 -67h25c131 0 275 78 296 198l103 -25c-36 -150 -214 -253 -383 -258l-15 -61c69 -3 158 -47 158 -119
v-67z" />
    <glyph glyph-name="Idotaccent" unicode="&#x130;" horiz-adv-x="326" 
d="M110 0v900h107v-900h-107zM91 1031c0 38 34 71 72 71s72 -33 72 -71s-34 -72 -72 -72s-72 34 -72 72z" />
    <glyph glyph-name="sterling" unicode="&#xa3;" horiz-adv-x="658" 
d="M259 259c0 -66 -29 -131 -74 -174h414v-85h-540v85c30 0 51 25 65 52c20 37 28 80 28 122v365h-93v84h93v69c0 40 31 72 66 93c46 28 99 40 153 40h9c54 0 107 -12 153 -40c30 -18 57 -44 64 -77l-105 -16c0 17 -18 27 -34 34c-25 11 -51 14 -78 14h-9
c-27 0 -53 -3 -78 -14c-16 -7 -34 -17 -34 -34v-69h255v-84h-255v-365z" />
    <glyph glyph-name="eight" unicode="8" horiz-adv-x="685" 
d="M336 75h13c41 0 82 10 117 32c27 17 50 43 50 75v141c0 32 -23 58 -50 75c-35 22 -76 32 -117 32h-13c-41 0 -82 -10 -117 -32c-27 -17 -50 -43 -50 -75v-141c0 -32 23 -58 50 -75c35 -22 76 -32 117 -32zM481 490c67 -27 142 -87 142 -167v-141c0 -55 -36 -103 -82 -135
c-56 -39 -124 -57 -192 -57h-13c-68 0 -136 18 -192 57c-46 32 -82 80 -82 135v141c0 80 75 140 142 167c-46 22 -96 63 -96 118v124c0 107 123 178 228 178h13c105 0 228 -71 228 -178v-124c0 -55 -50 -96 -96 -118zM215 608c0 -56 66 -93 121 -93h13c55 0 121 37 121 93
v124c0 56 -66 93 -121 93h-13c-55 0 -121 -37 -121 -93v-124z" />
    <glyph glyph-name="Ntilde" unicode="&#xd1;" horiz-adv-x="856" 
d="M96 0v900h100l457 -719v719h107v-900h-100l-457 719v-719h-107zM366 1022c-26 0 -47 -24 -47 -50h-85c0 69 63 126 132 126c44 0 80 -37 124 -37c26 0 47 24 47 50h85c0 -69 -64 -126 -132 -126c-44 0 -80 37 -124 37z" />
    <glyph glyph-name="Z" unicode="Z" horiz-adv-x="699" 
d="M34 815v85h630v-100l-515 -715h515v-85h-630v100l516 715h-516z" />
    <glyph glyph-name="T" unicode="T" horiz-adv-x="630" 
d="M11 815v85h608v-85h-250v-815h-107v815h-251z" />
    <glyph glyph-name="parenleft" unicode="(" horiz-adv-x="377" 
d="M298 -349c-41 28 -78 66 -111 106c-71 86 -125 189 -125 301v489c0 112 54 215 125 301c33 40 70 78 111 106l48 -70c-33 -24 -63 -57 -88 -92c-52 -72 -89 -156 -89 -245v-489c0 -89 37 -173 89 -245c25 -35 55 -68 88 -92z" />
    <glyph glyph-name="Eacute" unicode="&#xc9;" horiz-adv-x="637" 
d="M96 0v900h493v-85h-386v-107h333v-84h-333v-539h386v-85h-493zM389 1147h133l-151 -180h-98z" />
    <glyph glyph-name="zcaron" unicode="&#x17e;" horiz-adv-x="507" 
d="M34 653v85h439v-100l-326 -553h326v-85h-439v100l326 553h-326zM330 1125h96l-107 -180h-131l-107 180h96l76 -97z" />
    <glyph glyph-name="IJ" unicode="&#x132;" horiz-adv-x="829" 
d="M493 75c64 0 140 43 140 109v716h107v-716c0 -117 -133 -194 -247 -194h-12c-95 0 -189 50 -228 122l91 50c15 -51 77 -87 137 -87h12zM110 0v900h107v-900h-107z" />
    <glyph glyph-name="guilsinglleft" unicode="&#x2039;" horiz-adv-x="377" 
d="M175 369l140 -369h-113l-140 369l140 369h113z" />
    <glyph glyph-name="quotedblbase" unicode="&#x201e;" horiz-adv-x="630" 
d="M99 -180l99 292h111l-127 -292h-83zM434 112h111l-127 -292h-82z" />
    <glyph glyph-name="abreve" unicode="&#x103;" horiz-adv-x="644" 
d="M314 748c127 0 248 -106 248 -234v-514h-107v46c-37 -35 -89 -56 -141 -56h-12c-62 0 -122 17 -173 52c-41 29 -74 72 -74 122v118c0 50 33 92 74 121c51 35 111 53 173 53h12c52 0 104 -22 141 -57v115c0 77 -64 149 -141 149h-12c-63 0 -115 -50 -133 -103l-93 45
c37 78 126 143 226 143h12zM503 1136v-62c0 -36 -26 -65 -57 -85c-40 -25 -86 -36 -133 -36h-9c-47 0 -93 11 -133 36c-31 20 -57 49 -57 85v62h86v-62c0 -16 16 -25 31 -32c23 -10 48 -14 73 -14h9c25 0 50 4 73 14c15 7 31 16 31 32v62h86zM162 164c0 -59 83 -89 140 -89
h12c35 0 69 9 98 27c23 14 43 35 43 62v118c0 27 -20 48 -43 62c-29 18 -63 27 -98 27h-12c-57 0 -140 -30 -140 -89v-118z" />
    <glyph glyph-name="G" unicode="G" horiz-adv-x="980" 
d="M790 119c-64 -77 -183 -129 -298 -129h-25c-102 0 -203 31 -284 93c-70 53 -121 130 -121 217v300c0 87 51 164 121 217c81 62 182 93 284 93h25c102 0 203 -31 284 -93c39 -30 72 -67 94 -109h27v-708h-107v119zM751 708c-54 70 -157 117 -259 117h-25
c-75 0 -149 -23 -209 -68c-51 -39 -89 -93 -89 -157v-300c0 -64 38 -119 89 -158c60 -45 134 -67 209 -67h25c73 0 146 16 209 54c48 29 89 71 89 126v369h-310v84h271z" />
    <glyph glyph-name="h" unicode="h" horiz-adv-x="623" 
d="M337 663c-68 0 -141 -50 -141 -119v-544h-107v980h107v-299c35 40 87 67 141 67h10c108 0 201 -96 201 -204v-544h-107v544c0 55 -38 119 -94 119h-10z" />
    <glyph glyph-name="aacute" unicode="&#xe1;" horiz-adv-x="644" 
d="M314 748c127 0 248 -106 248 -234v-514h-107v46c-37 -35 -89 -56 -141 -56h-12c-62 0 -122 17 -173 52c-41 29 -74 72 -74 122v118c0 50 33 92 74 121c51 35 111 53 173 53h12c52 0 104 -22 141 -57v115c0 77 -64 149 -141 149h-12c-63 0 -115 -50 -133 -103l-93 45
c37 78 126 143 226 143h12zM355 1125h133l-151 -180h-99zM162 164c0 -59 83 -89 140 -89h12c35 0 69 9 98 27c23 14 43 35 43 62v118c0 27 -20 48 -43 62c-29 18 -63 27 -98 27h-12c-57 0 -140 -30 -140 -89v-118z" />
    <glyph glyph-name="eacute" unicode="&#xe9;" horiz-adv-x="678" 
d="M162 251c0 -93 80 -176 173 -176h15c42 0 84 8 121 28c27 14 52 35 52 65l105 -20c-9 -43 -43 -79 -82 -104c-58 -37 -127 -54 -196 -54h-15c-143 0 -280 117 -280 261v236c0 144 137 261 280 261h15c143 0 280 -117 280 -261v-161h-468v-75zM389 1125h133l-151 -180h-98
zM335 663c-93 0 -173 -83 -173 -176v-75h361v75c0 93 -80 176 -173 176h-15z" />
    <glyph glyph-name="Scaron" unicode="&#x160;" horiz-adv-x="712" 
d="M78 105l85 58c5 -26 29 -44 54 -58c39 -21 83 -30 128 -30h15c45 0 90 9 129 30c28 15 55 38 55 70v133c0 32 -27 55 -55 70c-39 21 -84 30 -129 30h-15c-72 0 -143 17 -203 55c-47 30 -87 74 -87 129v133c0 55 40 100 87 130c60 38 131 55 203 55h15
c104 0 219 -43 268 -116l-85 -58c-5 26 -29 45 -54 59c-39 21 -84 30 -129 30h-15c-45 0 -89 -9 -128 -30c-28 -15 -55 -38 -55 -70v-133c0 -32 27 -55 55 -70c39 -21 83 -30 128 -30h15c72 0 144 -17 204 -55c47 -30 87 -74 87 -129v-133c0 -55 -40 -100 -87 -130
c-60 -38 -132 -55 -204 -55h-15c-104 0 -218 43 -267 115zM429 1125h97l-108 -180h-130l-108 180h96l77 -97z" />
    <glyph glyph-name="greater" unicode="&#x3e;" horiz-adv-x="671" 
d="M512 369l-457 266v121l561 -326v-121l-561 -327v121z" />
    <glyph glyph-name="oe" unicode="&#x153;" horiz-adv-x="1082" 
d="M602 251c0 -88 68 -176 156 -176h13c38 0 76 8 109 28c24 15 46 36 47 64l105 -19c-8 -43 -39 -78 -77 -104c-54 -37 -119 -54 -184 -54h-13c-84 0 -163 46 -210 107c-47 -61 -126 -107 -210 -107h-13c-139 0 -263 122 -263 261v236c0 139 124 261 263 261h13
c84 0 163 -46 210 -107c47 61 126 107 210 107h13c139 0 263 -122 263 -261v-161h-432v-75zM494 487c0 88 -68 176 -156 176h-13c-88 0 -156 -88 -156 -176v-236c0 -88 68 -176 156 -176h13c88 0 156 88 156 176v236zM758 663c-88 0 -156 -88 -156 -176v-75h325v75
c0 88 -68 176 -156 176h-13z" />
    <glyph glyph-name="Nacute" unicode="&#x143;" horiz-adv-x="856" 
d="M96 0v900h100l457 -719v719h107v-900h-100l-457 719v-719h-107zM474 1147h134l-151 -180h-99z" />
    <glyph glyph-name="lacute" unicode="&#x13a;" horiz-adv-x="272" 
d="M82 0v980h107v-980h-107zM198 1225h134l-151 -180h-99z" />
    <glyph glyph-name="less" unicode="&#x3c;" horiz-adv-x="671" 
d="M159 369l457 -266v-121l-561 327v121l561 326v-121z" />
    <glyph glyph-name="asciicircum" unicode="^" horiz-adv-x="740" 
d="M370 777l-202 -417h-119l261 540h119l262 -540h-119z" />
    <glyph glyph-name="seven" unicode="7" 
d="M55 815v85h527v-100l-326 -800h-112l332 815h-421z" />
    <glyph glyph-name="Ocircumflex" unicode="&#xd4;" horiz-adv-x="959" 
d="M492 825h-25c-75 0 -149 -23 -209 -68c-51 -39 -89 -93 -89 -157v-300c0 -64 38 -119 89 -158c60 -45 134 -67 209 -67h25c75 0 149 22 209 67c51 39 89 94 89 158v300c0 64 -38 118 -89 157c-60 45 -134 68 -209 68zM492 910c102 0 203 -31 284 -93
c70 -53 121 -130 121 -217v-300c0 -87 -51 -164 -121 -217c-81 -62 -182 -93 -284 -93h-25c-102 0 -203 31 -284 93c-70 53 -121 130 -121 217v300c0 87 51 164 121 217c81 62 182 93 284 93h25zM480 1065l-77 -98h-96l107 180h131l107 -180h-96z" />
    <glyph glyph-name="F" unicode="F" horiz-adv-x="616" 
d="M96 0v900h493v-85h-386v-107h333v-84h-333v-624h-107z" />
    <glyph glyph-name="tilde" unicode="&#x2dc;" horiz-adv-x="288" 
d="M82 775c-26 0 -47 -25 -47 -51h-86c0 69 64 126 133 126c44 0 80 -36 124 -36c26 0 47 24 47 50h85c0 -69 -64 -126 -132 -126c-44 0 -80 37 -124 37z" />
    <glyph glyph-name="iacute" unicode="&#xed;" horiz-adv-x="260" 
d="M77 0v738h107v-738h-107zM176 1125h134l-151 -180h-99z" />
    <glyph glyph-name="Otilde" unicode="&#xd5;" horiz-adv-x="959" 
d="M418 1022c-26 0 -47 -24 -47 -50h-86c0 69 64 126 133 126c44 0 79 -37 123 -37c26 0 47 24 47 50h86c0 -69 -65 -126 -133 -126c-44 0 -79 37 -123 37zM492 825h-25c-75 0 -149 -23 -209 -68c-51 -39 -89 -93 -89 -157v-300c0 -64 38 -119 89 -158
c60 -45 134 -67 209 -67h25c75 0 149 22 209 67c51 39 89 94 89 158v300c0 64 -38 118 -89 157c-60 45 -134 68 -209 68zM492 910c102 0 203 -31 284 -93c70 -53 121 -130 121 -217v-300c0 -87 -51 -164 -121 -217c-81 -62 -182 -93 -284 -93h-25c-102 0 -203 31 -284 93
c-70 53 -121 130 -121 217v300c0 87 51 164 121 217c81 62 182 93 284 93h25z" />
    <glyph glyph-name="parenright" unicode=")" horiz-adv-x="377" 
d="M81 -349l-47 70c33 24 61 57 86 92c52 72 88 156 88 245v489c0 89 -36 173 -88 245c-25 35 -53 68 -86 92l47 70c41 -28 78 -66 110 -106c71 -87 124 -189 124 -301v-489c0 -112 -53 -214 -124 -301c-32 -40 -69 -78 -110 -106z" />
    <glyph glyph-name="germandbls" unicode="&#xdf;" horiz-adv-x="678" 
d="M319 910c103 0 226 -66 226 -171v-115c0 -46 -22 -88 -56 -119c61 -31 121 -91 121 -166v-151c0 -109 -104 -198 -213 -198h-12c-81 0 -158 45 -196 105v-95h-107v739c0 105 124 171 227 171h10zM503 339c0 69 -83 113 -151 113h-64v86h64c46 0 86 40 86 86v115
c0 54 -66 86 -119 86h-10c-53 0 -120 -32 -120 -86v-611l83 35c12 -47 59 -88 113 -88h12c58 0 106 55 106 113v151z" />
    <glyph glyph-name="a" unicode="a" horiz-adv-x="644" 
d="M314 748c127 0 248 -106 248 -234v-514h-107v46c-37 -35 -89 -56 -141 -56h-12c-62 0 -122 17 -173 52c-41 29 -74 72 -74 122v118c0 50 33 92 74 121c51 35 111 53 173 53h12c52 0 104 -22 141 -57v115c0 77 -64 149 -141 149h-12c-63 0 -115 -50 -133 -103l-93 45
c37 78 126 143 226 143h12zM162 164c0 -59 83 -89 140 -89h12c35 0 69 9 98 27c23 14 43 35 43 62v118c0 27 -20 48 -43 62c-29 18 -63 27 -98 27h-12c-57 0 -140 -30 -140 -89v-118z" />
    <glyph glyph-name="scedilla" unicode="&#x15f;" horiz-adv-x="548" 
d="M360 -190c0 34 -50 51 -83 51h-86l33 132c-64 9 -127 43 -160 90l85 59c8 -44 72 -67 120 -67h10c30 0 60 7 85 23c19 12 36 29 36 52v101c0 23 -17 41 -36 53c-25 16 -55 22 -85 22h-10c-57 0 -114 16 -160 49c-38 27 -68 66 -68 112v101c0 46 30 85 68 112
c46 33 103 48 160 48h10c83 0 170 -38 208 -97l-88 -57c-6 46 -71 69 -120 69h-10c-30 0 -60 -7 -85 -23c-19 -12 -36 -29 -36 -52v-101c0 -23 17 -41 36 -53c25 -16 55 -22 85 -22h10c57 0 114 -16 160 -49c38 -27 68 -66 68 -112v-101c0 -46 -30 -85 -68 -112
c-40 -28 -87 -43 -136 -47l-16 -62c69 -3 159 -47 159 -119v-67c0 -34 -23 -63 -51 -83c-34 -24 -76 -36 -118 -36h-6c-70 0 -150 39 -166 100l83 19c0 -34 50 -51 83 -51h6c33 0 83 17 83 51v67z" />
    <glyph glyph-name="ugrave" unicode="&#xf9;" 
d="M328 75c67 0 133 52 133 119v544h108v-738h-108v54c-34 -38 -81 -64 -133 -64h-12c-117 0 -241 86 -241 204v544h107v-544c0 -67 67 -119 134 -119h12zM142 1125h134l116 -180h-99z" />
    <glyph glyph-name="uacute" unicode="&#xfa;" 
d="M328 75c67 0 133 52 133 119v544h108v-738h-108v54c-34 -38 -81 -64 -133 -64h-12c-117 0 -241 86 -241 204v544h107v-544c0 -67 67 -119 134 -119h12zM368 1125h134l-151 -180h-99z" />
    <glyph glyph-name="Ncaron" unicode="&#x147;" horiz-adv-x="856" 
d="M96 0v900h100l457 -719v719h107v-900h-100l-457 719v-719h-107zM504 1147h97l-108 -180h-130l-108 180h97l76 -97z" />
    <glyph glyph-name="one" unicode="1" horiz-adv-x="466" 
d="M214 0v765l-159 -129v129l166 135h100v-900h-107z" />
    <glyph glyph-name="f" unicode="f" horiz-adv-x="404" 
d="M290 905c-16 0 -41 -8 -41 -25v-142h96v-85h-96v-653h-107v653h-97v85h97v142c0 68 82 110 148 110h3c48 0 96 -21 124 -52l-83 -58c0 17 -25 25 -41 25h-3z" />
    <glyph glyph-name="Ugrave" unicode="&#xd9;" horiz-adv-x="814" 
d="M722 900v-691c0 -63 -40 -116 -92 -153c-62 -44 -138 -66 -215 -66h-16c-77 0 -153 22 -215 66c-52 37 -92 90 -92 153v691h107v-691c0 -39 27 -72 60 -94c41 -28 90 -40 140 -40h16c50 0 99 12 140 40c33 22 60 55 60 94v691h107zM227 1147h134l116 -180h-99z" />
    <glyph glyph-name="macron" unicode="&#xaf;" horiz-adv-x="288" 
d="M-21 750v75h330v-75h-330z" />
    <glyph glyph-name="dash" horiz-adv-x="432" 
d="M55 326v86h322v-86h-322z" />
    <glyph glyph-name="thorn" unicode="&#xfe;" horiz-adv-x="699" 
d="M356 -10c-68 0 -129 42 -167 94v-434h-107v1250h107v-246c38 52 99 94 167 94h14c142 0 274 -119 274 -261v-236c0 -142 -132 -261 -274 -261h-14zM537 487c0 91 -76 176 -167 176h-14c-91 0 -167 -85 -167 -176v-236c0 -91 76 -176 167 -176h14c91 0 167 85 167 176v236
z" />
    <glyph glyph-name="space" unicode=" " horiz-adv-x="410" 
 />
    </font>
</defs>
</svg>
